<svg width="24" height="24" viewBox="0 0 24 24" fill="none" xmlns="http://www.w3.org/2000/svg">
<path fill-rule="evenodd" clip-rule="evenodd" d="M4.96582 10.2131C4.96582 7.3728 7.26831 5.07031 10.1086 5.07031C12.9488 5.07031 15.2513 7.3728 15.2513 10.2131C15.2513 13.0533 12.9488 15.3558 10.1086 15.3558C7.26831 15.3558 4.96582 13.0533 4.96582 10.2131ZM10.1086 3.57031C6.43988 3.57031 3.46582 6.54437 3.46582 10.2131C3.46582 13.8818 6.43988 16.8558 10.1086 16.8558C11.6727 16.8558 13.1106 16.3152 14.2455 15.4107L18.8383 20.0034C19.1312 20.2963 19.6061 20.2963 19.8989 20.0034C20.1918 19.7105 20.1918 19.2357 19.8989 18.9428L15.3062 14.35C16.2107 13.2151 16.7513 11.7772 16.7513 10.2131C16.7513 6.54437 13.7773 3.57031 10.1086 3.57031Z" fill="#121212"/>
</svg>
