<svg width="6" height="8" viewBox="0 0 6 8" fill="none" xmlns="http://www.w3.org/2000/svg">
<path d="M0.93149 1.41262C0.83549 1.31663 0.78749 1.20062 0.78749 1.06462C0.78749 0.928625 0.83549 0.808625 0.93149 0.704625C1.02749 0.600625 1.14549 0.550625 1.28549 0.554625C1.42549 0.558625 1.54349 0.608625 1.63949 0.704625L5.09549 4.16062L1.62749 7.49663C1.53149 7.59262 1.41349 7.64062 1.27349 7.64062C1.13349 7.64062 1.01549 7.58863 0.91949 7.48462C0.82349 7.38062 0.77749 7.26063 0.78149 7.12462C0.78549 6.98862 0.83549 6.87262 0.93149 6.77662L3.66749 4.14862L0.93149 1.41262Z" fill="#414146"/>
</svg>
