<svg width="28" height="28" viewBox="0 0 28 28" fill="none" xmlns="http://www.w3.org/2000/svg">
<path d="M11.668 16.3331C12.436 17.117 13.4872 17.5587 14.5846 17.5587C15.682 17.5587 16.7333 17.117 17.5013 16.3331L22.168 11.6665C23.7788 10.0556 23.7788 7.44395 22.168 5.83312C20.5571 4.22229 17.9455 4.22229 16.3346 5.83312L15.7513 6.41646" stroke="#807E7E" stroke-width="2" stroke-linecap="round" stroke-linejoin="round"/>
<path d="M16.3331 11.6631C15.5651 10.8792 14.5139 10.4375 13.4165 10.4375C12.319 10.4375 11.2678 10.8792 10.4998 11.6631L5.83312 16.3298C4.22229 17.9406 4.22229 20.5523 5.83312 22.1631C7.44395 23.7739 10.0556 23.7739 11.6665 22.1631L12.2498 21.5798" stroke="#212121" stroke-width="2" stroke-linecap="round" stroke-linejoin="round"/>
</svg>
