<svg width="17" height="17" viewBox="0 0 17 17" fill="none" xmlns="http://www.w3.org/2000/svg">
<path d="M5.75 11.375H1.10938C0.997487 11.375 0.890181 11.3306 0.811064 11.2514C0.731947 11.1723 0.6875 11.065 0.6875 10.9531V6.3125C0.6875 4.96984 1.22087 3.68217 2.17027 2.73277C3.11967 1.78337 4.40734 1.25 5.75 1.25V1.25C7.09266 1.25 8.38032 1.78337 9.32973 2.73277C10.2791 3.68217 10.8125 4.96984 10.8125 6.3125V6.3125C10.8125 7.65516 10.2791 8.94282 9.32973 9.89223C8.38032 10.8416 7.09266 11.375 5.75 11.375V11.375Z" stroke="#2D2D32" stroke-linecap="round" stroke-linejoin="round"/>
<path d="M5.47656 11.3758C5.8256 12.363 6.47217 13.2177 7.32721 13.8222C8.18224 14.4266 9.20367 14.751 10.2508 14.7508H14.8914C15.0033 14.7508 15.1106 14.7063 15.1897 14.6272C15.2688 14.5481 15.3133 14.4408 15.3133 14.3289V9.68828C15.3151 8.39252 14.8193 7.14553 13.9283 6.20477C13.0372 5.26401 11.819 4.70129 10.525 4.63281" stroke="#2D2D32" stroke-linecap="round" stroke-linejoin="round"/>
</svg>
