<svg width="16" height="16" viewBox="0 0 16 16" fill="none" xmlns="http://www.w3.org/2000/svg">
<path fill-rule="evenodd" clip-rule="evenodd" d="M8 2C4.68629 2 2 4.68629 2 8C2 11.3137 4.68629 14 8 14C11.3137 14 14 11.3137 14 8C14 4.68629 11.3137 2 8 2ZM0.5 8C0.5 3.85786 3.85786 0.5 8 0.5C12.1421 0.5 15.5 3.85786 15.5 8C15.5 12.1421 12.1421 15.5 8 15.5C3.85786 15.5 0.5 12.1421 0.5 8ZM8.75 7.25V4.25C8.75 3.83579 8.41421 3.5 8 3.5C7.58579 3.5 7.25 3.83579 7.25 4.25V8C7.25 8.41421 7.58579 8.75 8 8.75H10.625C11.0392 8.75 11.375 8.41421 11.375 8C11.375 7.58579 11.0392 7.25 10.625 7.25H8.75Z" fill="#3E3E59"/>
</svg>
