<svg width="16" height="14" viewBox="0 0 16 14" fill="none" xmlns="http://www.w3.org/2000/svg">
<path d="M0.581562 13.2003H2.90156C3.0349 13.2003 3.1449 13.157 3.23156 13.0703C3.31823 12.9836 3.36156 12.8736 3.36156 12.7403V5.30031C3.36156 5.16698 3.31823 5.05365 3.23156 4.96031C3.1449 4.86698 3.0349 4.82031 2.90156 4.82031H0.581562C0.448229 4.82031 0.334896 4.86698 0.241563 4.96031C0.148229 5.05365 0.101562 5.16698 0.101562 5.30031V12.7403C0.101562 12.8736 0.148229 12.9836 0.241563 13.0703C0.334896 13.157 0.448229 13.2003 0.581562 13.2003ZM12.1016 2.54031C12.1549 1.80698 12.0049 1.23031 11.6516 0.810313C11.2982 0.390313 10.7482 0.180313 10.0016 0.180313C9.92156 0.180313 9.84156 0.203646 9.76156 0.250313C9.68156 0.29698 9.62823 0.360312 9.60156 0.440312L9.04156 1.36031C8.52156 2.12031 7.9549 2.80698 7.34156 3.42031C6.46156 4.30031 5.5349 4.98031 4.56156 5.46031C4.38823 5.54031 4.30156 5.68031 4.30156 5.88031V10.2403C4.30156 11.067 4.58823 11.787 5.16156 12.4003C5.70823 12.9736 6.44156 13.2803 7.36156 13.3203H11.7416C12.4882 13.3203 13.0749 13.1403 13.5016 12.7803C13.7549 12.5536 13.9016 12.327 13.9416 12.1003L15.6816 6.00031L15.7016 5.88031C15.7016 5.66698 15.6482 5.45365 15.5416 5.24031C15.3282 4.77365 14.9349 4.54031 14.3616 4.54031H11.6016C11.8816 3.79365 12.0482 3.12698 12.1016 2.54031Z" fill="#01A400"/>
</svg>
