<svg width="10" height="14" viewBox="0 0 10 14" fill="none" xmlns="http://www.w3.org/2000/svg">
<path d="M8.64645 5.00439C8.84171 5.21729 9.15829 5.21729 9.35355 5.00439C9.54882 4.79149 9.54882 4.44631 9.35355 4.23341L6.06066 0.643086C5.47487 0.00438729 4.52513 0.00438878 3.93934 0.643086L0.646446 4.23341C0.451184 4.44631 0.451185 4.79149 0.646446 5.00439C0.841709 5.21729 1.15829 5.21729 1.35355 5.00439L4.64645 1.41406C4.84171 1.20116 5.15829 1.20116 5.35355 1.41406L8.64645 5.00439Z" fill="black" fill-opacity="0.2"/>
<path d="M1.35355 8.32374C1.15829 8.11084 0.841709 8.11084 0.646447 8.32374C0.451185 8.53664 0.451185 8.88181 0.646447 9.09471L3.93934 12.685C4.52513 13.3237 5.47487 13.3237 6.06066 12.685L9.35355 9.09472C9.54882 8.88182 9.54882 8.53664 9.35355 8.32374C9.15829 8.11084 8.84171 8.11084 8.64645 8.32374L5.35355 11.9141C5.15829 12.127 4.84171 12.127 4.64645 11.9141L1.35355 8.32374Z" fill="black" fill-opacity="0.2"/>
</svg>
