<svg width="21" height="16" viewBox="0 0 21 16" fill="none" xmlns="http://www.w3.org/2000/svg">
<path fill-rule="evenodd" clip-rule="evenodd" d="M2.07577 2.53319C2.23201 2.02102 2.70828 1.64844 3.27156 1.64844H17.2716C17.8349 1.64844 18.3111 2.02102 18.4674 2.53319L10.2716 7.99705L2.07577 2.53319ZM0.521598 2.8847C0.521459 2.8927 0.521448 2.9007 0.521564 2.90869V12.8984C0.521564 14.4172 1.75278 15.6484 3.27156 15.6484H17.2716C18.7903 15.6484 20.0216 14.4172 20.0216 12.8984V2.90867M18.5216 4.29983V12.8984C18.5216 13.5888 17.9619 14.1484 17.2716 14.1484H3.27156C2.58121 14.1484 2.02156 13.5888 2.02156 12.8984V4.29983L9.85554 9.52248C10.1075 9.69042 10.4357 9.69042 10.6876 9.52248L18.5216 4.29983ZM20.0215 2.88473C20.0141 1.37225 18.7858 0.148438 17.2716 0.148438H3.27156C1.75736 0.148438 0.528995 1.37224 0.521598 2.8847" fill="#121212"/>
</svg>
