<svg width="31" height="31" viewBox="0 0 31 31" fill="none" xmlns="http://www.w3.org/2000/svg">
<rect x="0.554688" y="0.210938" width="30" height="30" rx="15" fill="#E8FCA6"/>
<path d="M20.5889 10.2999L16.5009 20.4219H14.7999L10.7119 10.2999H12.2239C12.3872 10.2999 12.5202 10.3395 12.6229 10.4189C12.7255 10.4982 12.8025 10.6009 12.8539 10.7269L15.2409 16.9009C15.3202 17.1015 15.3949 17.3232 15.4649 17.5659C15.5395 17.8039 15.6095 18.0535 15.6749 18.3149C15.7309 18.0535 15.7915 17.8039 15.8569 17.5659C15.9222 17.3232 15.9945 17.1015 16.0739 16.9009L18.4469 10.7269C18.4842 10.6195 18.5565 10.5215 18.6639 10.4329C18.7759 10.3442 18.9112 10.2999 19.0699 10.2999H20.5889Z" fill="#787887"/>
</svg>
