<svg width="10" height="15" viewBox="0 0 10 15" fill="none" xmlns="http://www.w3.org/2000/svg">
<path d="M8.88994 1.84087C9.08194 1.64888 9.17794 1.41687 9.17794 1.14487C9.17794 0.872875 9.08194 0.632874 8.88994 0.424875C8.69794 0.216875 8.46594 0.116875 8.19394 0.124875C7.92194 0.132874 7.68194 0.232875 7.47394 0.424875L0.585938 7.33687L7.49794 14.0089C7.68994 14.2009 7.92594 14.2969 8.20594 14.2969C8.48594 14.2969 8.72194 14.1929 8.91394 13.9849C9.10594 13.7769 9.19794 13.5369 9.18994 13.2649C9.18194 12.9929 9.08194 12.7609 8.88994 12.5689L3.44194 7.31287L8.88994 1.84087Z" fill="#B4B4BE"/>
</svg>
