<svg width="19" height="18" viewBox="0 0 19 18" fill="none" xmlns="http://www.w3.org/2000/svg">
<path fill-rule="evenodd" clip-rule="evenodd" d="M5.32422 1.69531C3.52929 1.69531 2.07422 3.15039 2.07422 4.94531V12.9453C2.07422 14.7402 3.52929 16.1953 5.32422 16.1953H13.3242C15.1191 16.1953 16.5742 14.7402 16.5742 12.9453V4.94531C16.5742 3.15039 15.1191 1.69531 13.3242 1.69531H5.32422ZM0.574219 4.94531C0.574219 2.32196 2.70087 0.195312 5.32422 0.195312H13.3242C15.9476 0.195312 18.0742 2.32196 18.0742 4.94531V12.9453C18.0742 15.5687 15.9476 17.6953 13.3242 17.6953H5.32422C2.70087 17.6953 0.574219 15.5687 0.574219 12.9453V4.94531ZM9.32422 6.69531C8.08158 6.69531 7.07422 7.70267 7.07422 8.94531C7.07422 10.188 8.08158 11.1953 9.32422 11.1953C10.5669 11.1953 11.5742 10.188 11.5742 8.94531C11.5742 7.70267 10.5669 6.69531 9.32422 6.69531ZM5.57422 8.94531C5.57422 6.87424 7.25315 5.19531 9.32422 5.19531C11.3953 5.19531 13.0742 6.87424 13.0742 8.94531C13.0742 11.0164 11.3953 12.6953 9.32422 12.6953C7.25315 12.6953 5.57422 11.0164 5.57422 8.94531ZM14.5742 4.44531C14.5742 4.0311 14.2384 3.69531 13.8242 3.69531C13.41 3.69531 13.0742 4.0311 13.0742 4.44531V4.44631C13.0742 4.86053 13.41 5.19631 13.8242 5.19631C14.2384 5.19631 14.5742 4.86053 14.5742 4.44631V4.44531Z" fill="#121212"/>
</svg>
