<svg width="15" height="12" viewBox="0 0 15 12" fill="none" xmlns="http://www.w3.org/2000/svg">
<path d="M1.36484 11.5056H3.36484C3.48218 11.5056 3.57818 11.4656 3.65284 11.3856C3.72751 11.3056 3.76484 11.2122 3.76484 11.1056V4.70556C3.76484 4.58823 3.72751 4.49223 3.65284 4.41756C3.57818 4.3429 3.48218 4.30556 3.36484 4.30556H1.36484C1.25818 4.30556 1.16484 4.3429 1.08484 4.41756C1.00484 4.49223 0.964844 4.58823 0.964844 4.70556V11.1056C0.964844 11.2122 1.00484 11.3056 1.08484 11.3856C1.16484 11.4656 1.25818 11.5056 1.36484 11.5056ZM1.76484 5.10556H2.96484V10.7056H1.76484V5.10556ZM7.74884 3.64956C8.29284 3.12689 8.81018 2.49756 9.30084 1.76156C9.46084 1.53756 9.58884 1.32956 9.68484 1.13756C9.99418 1.1589 10.2075 1.2629 10.3248 1.44956C10.4422 1.63623 10.4902 1.9109 10.4688 2.27356C10.4475 2.5829 10.3782 2.92956 10.2608 3.31356C10.1435 3.66556 10.0102 3.98556 9.86084 4.27356C9.78618 4.41223 9.78884 4.5429 9.86884 4.66556C9.94884 4.78823 10.0635 4.84956 10.2128 4.84956H13.2208C13.3595 4.84956 13.4555 4.9029 13.5088 5.00956C13.5408 5.05223 13.5568 5.10556 13.5568 5.16956L12.0848 10.3536C12.0422 10.4176 11.9942 10.4762 11.9408 10.5296C11.7275 10.7109 11.4022 10.8016 10.9648 10.8016H7.22084C6.66618 10.7802 6.22351 10.5936 5.89284 10.2416C5.54084 9.88956 5.36484 9.4629 5.36484 8.96156V5.44156C6.21818 4.9829 7.01284 4.38556 7.74884 3.64956ZM11.2528 2.33756C11.3062 1.70823 11.1808 1.21223 10.8768 0.849562C10.5728 0.486896 10.1062 0.305562 9.47684 0.305562C9.39151 0.305562 9.31684 0.324228 9.25284 0.361562C9.18884 0.398895 9.14084 0.454895 9.10884 0.529562L8.99684 0.737562C8.92218 0.876228 8.79951 1.06823 8.62884 1.31356C8.20218 1.96423 7.72218 2.55623 7.18884 3.08956C6.45284 3.82556 5.65284 4.41223 4.78884 4.84956C4.71418 4.88156 4.65818 4.92956 4.62084 4.99356C4.58351 5.05756 4.56484 5.1269 4.56484 5.20156V8.96156C4.56484 9.67623 4.81551 10.2896 5.31684 10.8016C5.78618 11.3029 6.41551 11.5696 7.20484 11.6016H10.9648C11.5942 11.6016 12.0955 11.4469 12.4688 11.1376C12.6608 10.9562 12.7888 10.7642 12.8528 10.5616L14.3568 5.31356L14.3728 5.20156C14.3728 5.0309 14.3275 4.84956 14.2368 4.65756C14.1462 4.46556 14.0128 4.31623 13.8368 4.20956C13.6608 4.1029 13.4555 4.04956 13.2208 4.04956H10.8368C11.0822 3.3989 11.2208 2.82823 11.2528 2.33756Z" fill="#414146"/>
</svg>
