<svg width="18" height="18" viewBox="0 0 18 18" fill="none" xmlns="http://www.w3.org/2000/svg">
<path fill-rule="evenodd" clip-rule="evenodd" d="M3 1.75C2.30964 1.75 1.75 2.30964 1.75 3V15C1.75 15.6904 2.30964 16.25 3 16.25H15C15.6904 16.25 16.25 15.6904 16.25 15V3C16.25 2.30964 15.6904 1.75 15 1.75H3ZM0.25 3C0.25 1.48122 1.48122 0.25 3 0.25H15C16.5188 0.25 17.75 1.48122 17.75 3V15C17.75 16.5188 16.5188 17.75 15 17.75H3C1.48122 17.75 0.25 16.5188 0.25 15V3ZM5 7.25C5.41421 7.25 5.75 7.58579 5.75 8V13C5.75 13.4142 5.41421 13.75 5 13.75C4.58579 13.75 4.25 13.4142 4.25 13V8C4.25 7.58579 4.58579 7.25 5 7.25ZM5.75 5C5.75 4.58579 5.41421 4.25 5 4.25C4.58579 4.25 4.25 4.58579 4.25 5V5.01C4.25 5.42421 4.58579 5.76 5 5.76C5.41421 5.76 5.75 5.42421 5.75 5.01V5ZM9.64048 7.60956C9.50875 7.39392 9.27118 7.25 9 7.25C8.58579 7.25 8.25 7.58579 8.25 8V10V13C8.25 13.4142 8.58579 13.75 9 13.75C9.41421 13.75 9.75 13.4142 9.75 13V10C9.75 9.66848 9.8817 9.35054 10.1161 9.11612C10.3505 8.8817 10.6685 8.75 11 8.75C11.3315 8.75 11.6495 8.8817 11.8839 9.11612C12.1183 9.35054 12.25 9.66848 12.25 10V13C12.25 13.4142 12.5858 13.75 13 13.75C13.4142 13.75 13.75 13.4142 13.75 13V10C13.75 9.27065 13.4603 8.57118 12.9445 8.05546C12.4288 7.53973 11.7293 7.25 11 7.25C10.5191 7.25 10.0513 7.37594 9.64048 7.60956Z" fill="#121212"/>
</svg>
