<svg width="31" height="31" viewBox="0 0 31 31" fill="none" xmlns="http://www.w3.org/2000/svg">
<rect x="0.554688" y="0.210938" width="30" height="30" rx="15" fill="#F0DEFF"/>
<path d="M19.9154 10.2999V20.4219H18.9494C18.8 20.4219 18.674 20.3985 18.5714 20.3519C18.4734 20.3005 18.3777 20.2165 18.2844 20.0999L12.9994 13.3519C13.0274 13.6599 13.0414 13.9445 13.0414 14.2059V20.4219H11.3824V10.2999H12.3694C12.4487 10.2999 12.5164 10.3045 12.5724 10.3139C12.633 10.3185 12.6844 10.3325 12.7264 10.3559C12.773 10.3745 12.8174 10.4049 12.8594 10.4469C12.9014 10.4842 12.948 10.5355 12.9994 10.6009L18.3054 17.3769C18.2914 17.2135 18.2797 17.0525 18.2704 16.8939C18.261 16.7352 18.2564 16.5882 18.2564 16.4529V10.2999H19.9154Z" fill="#787887"/>
</svg>
