<svg width="25" height="25" viewBox="0 0 25 25" fill="none" xmlns="http://www.w3.org/2000/svg">
<path d="M16.0664 3.17969C17.5506 3.578 18.9038 4.35968 19.9904 5.44628C21.077 6.53287 21.8587 7.88616 22.257 9.37031" stroke="white" stroke-width="2" stroke-linecap="round" stroke-linejoin="round"/>
<path d="M15.1602 6.5625C16.0528 6.79957 16.8669 7.26839 17.52 7.92145C18.173 8.57452 18.6418 9.38862 18.8789 10.2812" stroke="white" stroke-width="2" stroke-linecap="round" stroke-linejoin="round"/>
<path d="M8.75 12.457C9.6504 14.3164 11.1539 15.8161 13.0156 16.7117C13.153 16.7768 13.3048 16.8049 13.4564 16.7934C13.6079 16.7819 13.7538 16.7311 13.8797 16.6461L16.6141 14.8195C16.7349 14.7376 16.8745 14.6876 17.0198 14.6742C17.1652 14.6608 17.3116 14.6845 17.4453 14.743L22.5641 16.9414C22.739 17.0142 22.8852 17.1425 22.98 17.3066C23.0749 17.4706 23.1132 17.6613 23.0891 17.8492C22.9268 19.1155 22.3087 20.2793 21.3505 21.1228C20.3922 21.9663 19.1594 22.4318 17.8828 22.432C13.9377 22.432 10.1542 20.8649 7.3646 18.0753C4.575 15.2857 3.00781 11.5021 3.00781 7.55704C3.0081 6.28041 3.47355 5.04763 4.31706 4.08937C5.16057 3.13111 6.32435 2.51303 7.59063 2.35079C7.77857 2.32665 7.96925 2.36496 8.13328 2.45983C8.29732 2.55469 8.42562 2.70085 8.49844 2.87579L10.6969 8.00548C10.754 8.13711 10.778 8.28078 10.7665 8.42383C10.7551 8.56688 10.7086 8.70493 10.6312 8.82579L8.80469 11.6039C8.72337 11.7296 8.67564 11.874 8.66607 12.0233C8.65649 12.1727 8.68539 12.322 8.75 12.457V12.457Z" stroke="white" stroke-width="2" stroke-linecap="round" stroke-linejoin="round"/>
</svg>
