<svg width="9" height="15" viewBox="0 0 9 15" fill="none" xmlns="http://www.w3.org/2000/svg">
<path d="M0.36298 1.84087C0.17098 1.64888 0.07498 1.41687 0.07498 1.14487C0.07498 0.872875 0.17098 0.632874 0.36298 0.424875C0.55498 0.216875 0.79098 0.116875 1.07098 0.124875C1.35098 0.132874 1.58698 0.232875 1.77898 0.424875L8.69098 7.33687L1.75498 14.0089C1.56298 14.2009 1.32698 14.2969 1.04698 14.2969C0.76698 14.2969 0.53098 14.1929 0.33898 13.9849C0.14698 13.7769 0.05498 13.5369 0.06298 13.2649C0.07098 12.9929 0.17098 12.7609 0.36298 12.5689L5.83498 7.31287L0.36298 1.84087Z" fill="#F15A2B"/>
</svg>
