<svg width="16" height="17" viewBox="0 0 16 17" fill="none" xmlns="http://www.w3.org/2000/svg">
<path d="M8.02156 16.2578C6.58156 16.2578 5.24823 15.8978 4.02156 15.1778C2.82156 14.4845 1.8749 13.5378 1.18156 12.3378C0.461562 11.1111 0.101562 9.77781 0.101562 8.33781C0.101562 6.89781 0.461562 5.56448 1.18156 4.33781C1.8749 3.13781 2.82156 2.19115 4.02156 1.49781C5.24823 0.777813 6.57823 0.417813 8.01156 0.417813C9.4449 0.417813 10.7816 0.777813 12.0216 1.49781C13.2082 2.20448 14.1549 3.15115 14.8616 4.33781C15.5816 5.57781 15.9416 6.91115 15.9416 8.33781C15.9416 9.76448 15.5816 11.0978 14.8616 12.3378C14.1549 13.5245 13.2082 14.4711 12.0216 15.1778C10.7816 15.8978 9.44823 16.2578 8.02156 16.2578ZM4.56156 8.29781C4.4549 8.19115 4.3149 8.13115 4.14156 8.11781C3.96823 8.10448 3.80156 8.16448 3.64156 8.29781C3.48156 8.43115 3.41156 8.59115 3.43156 8.77781C3.45156 8.96448 3.52156 9.11115 3.64156 9.21781L6.06156 11.6378C6.1549 11.7311 6.2749 11.7778 6.42156 11.7778C6.56823 11.7778 6.68823 11.7311 6.78156 11.6378L11.5816 6.85781C11.6882 6.73781 11.7482 6.60448 11.7616 6.45781C11.7749 6.28448 11.7149 6.12448 11.5816 5.97781C11.4482 5.83115 11.2782 5.76448 11.0716 5.77781C10.8649 5.79115 10.7082 5.85781 10.6016 5.97781L6.44156 10.1378L4.56156 8.29781Z" fill="#01A400"/>
</svg>
