<svg width="16" height="15" viewBox="0 0 16 15" fill="none" xmlns="http://www.w3.org/2000/svg">
<path d="M9.75223 9.24665C9.75223 9.24665 9.94792 9.05097 10.3393 8.6596C10.7307 8.26823 10.9263 7.52195 10.9263 6.42076C10.9263 5.31957 10.535 4.3776 9.75223 3.59487C8.96949 2.81213 8.02753 2.42076 6.92634 2.42076C5.82515 2.42076 4.88318 2.81213 4.10045 3.59487C3.31771 4.3776 2.92634 5.31957 2.92634 6.42076C2.92634 7.52195 3.31771 8.46391 4.10045 9.24665C4.88318 10.0294 5.82515 10.4208 6.92634 10.4208C8.02753 10.4208 8.96949 10.0294 9.75223 9.24665ZM15.4978 13.8493C15.4978 14.1589 15.3847 14.4267 15.1585 14.6529C14.9323 14.8791 14.6644 14.9922 14.3549 14.9922C14.0335 14.9922 13.7656 14.8791 13.5513 14.6529L10.4888 11.5993C9.42336 12.3374 8.23586 12.7065 6.92634 12.7065C6.07515 12.7065 5.26116 12.5413 4.48438 12.2109C3.70759 11.8806 3.03795 11.4342 2.47545 10.8717C1.91295 10.3092 1.46652 9.63951 1.13616 8.86272C0.805804 8.08594 0.640625 7.27195 0.640625 6.42076C0.640625 5.56957 0.805804 4.75558 1.13616 3.97879C1.46652 3.20201 1.91295 2.53237 2.47545 1.96987C3.03795 1.40737 3.70759 0.960937 4.48438 0.63058C5.26116 0.300222 6.07515 0.135044 6.92634 0.135044C7.77753 0.135044 8.59152 0.300222 9.3683 0.63058C10.1451 0.960937 10.8147 1.40737 11.3772 1.96987C11.9397 2.53237 12.3862 3.20201 12.7165 3.97879C13.0469 4.75558 13.2121 5.56957 13.2121 6.42076C13.2121 7.73028 12.843 8.91778 12.1049 9.98326L15.1674 13.0458C15.3876 13.266 15.4978 13.5339 15.4978 13.8493Z" fill="#5BBE2A"/>
</svg>
