<svg width="14" height="12" viewBox="0 0 14 12" fill="none" xmlns="http://www.w3.org/2000/svg">
<path d="M6.8708 1.95476H8.4848C8.59075 1.95476 8.69237 1.91266 8.76729 1.83774C8.84221 1.76282 8.88431 1.66121 8.88431 1.55525V0.743255C8.88431 0.6373 8.84221 0.535684 8.76729 0.460762C8.69237 0.385841 8.59075 0.34375 8.4848 0.34375H6.8708C6.76484 0.34375 6.66323 0.385841 6.58831 0.460762C6.51338 0.535684 6.47129 0.6373 6.47129 0.743255V1.55026C6.47063 1.60314 6.48048 1.65563 6.50026 1.70467C6.52004 1.75372 6.54936 1.79835 6.58652 1.83598C6.62369 1.87361 6.66795 1.90349 6.71675 1.92387C6.76555 1.94426 6.81791 1.95476 6.8708 1.95476ZM6.8708 5.18475H10.1028C10.2088 5.18475 10.3104 5.14266 10.3853 5.06774C10.4602 4.99282 10.5023 4.89121 10.5023 4.78525V3.97326C10.5023 3.8673 10.4602 3.76568 10.3853 3.69076C10.3104 3.61584 10.2088 3.57375 10.1028 3.57375H6.8708C6.76484 3.57375 6.66323 3.61584 6.58831 3.69076C6.51338 3.76568 6.47129 3.8673 6.47129 3.97326V4.78425C6.47129 4.89021 6.51338 4.99182 6.58831 5.06674C6.66323 5.14167 6.76484 5.18376 6.8708 5.18376V5.18475ZM13.3308 10.0298H6.8708C6.76484 10.0298 6.66323 10.0718 6.58831 10.1468C6.51338 10.2217 6.47129 10.3233 6.47129 10.4293V11.2363C6.47129 11.3422 6.51338 11.4438 6.58831 11.5188C6.66323 11.5937 6.76484 11.6358 6.8708 11.6358H13.3308C13.4368 11.6358 13.5384 11.5937 13.6133 11.5188C13.6882 11.4438 13.7303 11.3422 13.7303 11.2363V10.4293C13.7303 10.3767 13.7199 10.3247 13.6998 10.2761C13.6797 10.2276 13.6501 10.1835 13.6129 10.1464C13.5757 10.1093 13.5316 10.0799 13.483 10.0599C13.4344 10.0399 13.3833 10.0296 13.3308 10.0298ZM6.8708 8.41475H11.7158C11.8218 8.41475 11.9234 8.37267 11.9983 8.29774C12.0732 8.22282 12.1153 8.12121 12.1153 8.01525V7.20326C12.1153 7.0973 12.0732 6.99568 11.9983 6.92076C11.9234 6.84584 11.8218 6.80375 11.7158 6.80375H6.8708C6.76484 6.80375 6.66323 6.84584 6.58831 6.92076C6.51338 6.99568 6.47129 7.0973 6.47129 7.20326V8.01026C6.47063 8.06314 6.48048 8.11563 6.50026 8.16467C6.52004 8.21372 6.54936 8.25836 6.58652 8.29598C6.62369 8.33361 6.66795 8.36349 6.71675 8.38387C6.76555 8.40426 6.81791 8.41476 6.8708 8.41475ZM5.2558 8.41475H4.0443V0.743255C4.0443 0.690792 4.03396 0.638842 4.01389 0.590371C3.99381 0.541901 3.96438 0.49786 3.92729 0.460762C3.89019 0.423665 3.84615 0.394238 3.79768 0.374161C3.74921 0.354084 3.69726 0.34375 3.64479 0.34375H2.8328C2.72684 0.34375 2.62523 0.385841 2.55031 0.460762C2.47538 0.535684 2.43329 0.6373 2.43329 0.743255V8.41475H1.2138C1.13311 8.41281 1.05371 8.43536 0.986084 8.47943C0.918455 8.5235 0.865762 8.58702 0.834946 8.66163C0.80413 8.73624 0.796637 8.81843 0.813454 8.89738C0.830272 8.97633 0.87061 9.04833 0.929156 9.1039L2.95165 11.5259C2.98884 11.5638 3.03321 11.5939 3.08217 11.6145C3.13113 11.635 3.1837 11.6456 3.2368 11.6456C3.2899 11.6456 3.34246 11.635 3.39142 11.6145C3.44038 11.5939 3.48476 11.5638 3.52195 11.5259L5.54045 9.1039C5.59899 9.04833 5.63933 8.97633 5.65615 8.89738C5.67296 8.81843 5.66547 8.73624 5.63466 8.66163C5.60384 8.58702 5.55115 8.5235 5.48352 8.47943C5.41589 8.43536 5.3365 8.41281 5.2558 8.41475Z" fill="white"/>
</svg>
