<svg width="16" height="15" viewBox="0 0 16 15" fill="none" xmlns="http://www.w3.org/2000/svg">
<path d="M15.5 5.76674C15.5 5.89769 15.4219 6.04055 15.2656 6.19531L11.9934 9.35603L12.7686 13.8203C12.7746 13.862 12.7776 13.9215 12.7776 13.9989C12.7776 14.1239 12.7461 14.2295 12.683 14.3158C12.6199 14.4022 12.5282 14.4453 12.4081 14.4453C12.2939 14.4453 12.1737 14.4096 12.0475 14.3382L8 12.231L3.95252 14.3382C3.82031 14.4096 3.70012 14.4453 3.59195 14.4453C3.46575 14.4453 3.37109 14.4022 3.30799 14.3158C3.24489 14.2295 3.21334 14.1239 3.21334 13.9989C3.21334 13.9632 3.21935 13.9036 3.23137 13.8203L4.00661 9.35603L0.725361 6.19531C0.57512 6.0346 0.5 5.89174 0.5 5.76674C0.5 5.5465 0.668269 5.4096 1.00481 5.35603L5.53005 4.70424L7.55829 0.641742C7.67248 0.397695 7.81971 0.27567 8 0.27567C8.18029 0.27567 8.32752 0.397695 8.44171 0.641742L10.47 4.70424L14.9952 5.35603C15.3317 5.4096 15.5 5.5465 15.5 5.76674Z" fill="black"/>
</svg>
