<svg width="15" height="18" viewBox="0 0 15 18" fill="none" xmlns="http://www.w3.org/2000/svg">
<path d="M5.22071 8.89844C4.42958 8.89844 3.65622 9.13303 2.99842 9.57256C2.34063 10.0121 1.82794 10.6368 1.52519 11.3677C1.22244 12.0986 1.14322 12.9029 1.29756 13.6788C1.4519 14.4547 1.83287 15.1675 2.39228 15.7269C2.95169 16.2863 3.66442 16.6672 4.44034 16.8216C5.21627 16.9759 6.02053 16.8967 6.75144 16.594C7.48234 16.2912 8.10706 15.7785 8.54658 15.1207C8.98611 14.4629 9.22071 13.6896 9.22071 12.8984V0.898438C9.22071 2.22452 9.74749 3.49629 10.6852 4.43397C11.6229 5.37165 12.8946 5.89844 14.2207 5.89844" stroke="#121212" stroke-width="1.5" stroke-linecap="round" stroke-linejoin="round"/>
</svg>
