<svg width="26" height="22" viewBox="0 0 26 22" fill="none" xmlns="http://www.w3.org/2000/svg">
<path fill-rule="evenodd" clip-rule="evenodd" d="M24.6654 1.67591C23.4987 2.24757 22.3554 2.47974 21.1654 2.83091C19.8575 1.35507 17.9185 1.27341 16.0554 1.97107C14.1922 2.66874 12.9719 4.37441 12.9987 6.33091V7.49757C9.21286 7.59441 5.8412 5.87007 3.66536 2.83091C3.66536 2.83091 -1.21364 11.5027 8.33203 15.6642C6.14803 17.1191 3.96986 18.1002 1.33203 17.9976C5.19136 20.1011 9.3972 20.8244 13.0384 19.7674C17.215 18.5541 20.6474 15.4239 21.9645 10.7351C22.3575 9.30902 22.5526 7.83574 22.5444 6.35657C22.542 6.06607 24.306 3.12257 24.6654 1.67474V1.67591Z" stroke="#807E7E" stroke-width="1.79419" stroke-linecap="round" stroke-linejoin="round"/>
</svg>
