<svg width="23" height="18" viewBox="0 0 23 18" fill="none" xmlns="http://www.w3.org/2000/svg">
<path d="M21.6367 0.907474C20.6367 1.39747 19.6567 1.59647 18.6367 1.89747C17.5157 0.632474 15.8537 0.562474 14.2567 1.16047C12.6597 1.75847 11.6137 3.22047 11.6367 4.89747V5.89747C8.39172 5.98047 5.50172 4.50247 3.63672 1.89747C3.63672 1.89747 -0.545281 9.33047 7.63672 12.8975C5.76472 14.1445 3.89772 14.9855 1.63672 14.8975C4.94472 16.7005 8.54972 17.3205 11.6707 16.4145C15.2507 15.3745 18.1927 12.6915 19.3217 8.67247C19.6585 7.45014 19.8257 6.18733 19.8187 4.91947C19.8167 4.67047 21.3287 2.14747 21.6367 0.906474V0.907474Z" stroke="#121212" stroke-width="1.5" stroke-linecap="round" stroke-linejoin="round"/>
</svg>
