<svg width="54" height="37" viewBox="0 0 54 37" fill="none" xmlns="http://www.w3.org/2000/svg">
<path fill-rule="evenodd" clip-rule="evenodd" d="M44.4444 9.59752H48.8889C51.3481 9.59752 53.3333 8.2651 53.3333 6.61449V3.63147C53.3333 1.98086 51.3481 0.648438 48.8889 0.648438H44.4444C41.9852 0.648438 40 1.98086 40 3.63147V6.61449C40 8.2651 38.0148 9.59752 35.5556 9.59752H31.1111C28.6519 9.59752 26.6667 8.2651 26.6667 6.61449V3.63147C26.6667 1.98086 24.6815 0.648438 22.2222 0.648438H17.7778C15.3185 0.648438 13.3333 1.98086 13.3333 3.63147V6.61449C13.3333 8.2651 11.3481 9.59752 8.88889 9.59752H4.44444C1.98519 9.59752 0 10.9299 0 12.5806V15.5636C0 17.2142 1.98519 18.5466 4.44444 18.5466H8.88889C11.3481 18.5466 13.3333 19.879 13.3333 21.5296V24.5127C13.3333 26.1633 11.3481 27.4957 8.88889 27.4957H4.44444C1.98519 27.4957 0 28.8281 0 30.4787V33.4618C0 35.1124 1.98519 36.4448 4.44444 36.4448H8.88889C11.3481 36.4448 13.3333 35.1124 13.3333 33.4618V30.4787C13.3333 28.8281 15.3185 27.4957 17.7778 27.4957H22.2222C24.6815 27.4957 26.6667 28.8281 26.6667 30.4787V33.4618C26.6667 35.1124 28.6519 36.4448 31.1111 36.4448H35.5556C38.0148 36.4448 40 35.1124 40 33.4618V30.4787C40 28.8281 41.9852 27.4957 44.4444 27.4957H48.8889C51.3481 27.4957 53.3333 26.1633 53.3333 24.5127V21.5296C53.3333 19.879 51.3481 18.5466 48.8889 18.5466H44.4444C41.9852 18.5466 40 17.2142 40 15.5636V12.5806C40 10.9299 41.9852 9.59752 44.4444 9.59752ZM40 24.5127V21.5296C40 19.879 38.0148 18.5466 35.5556 18.5466H31.1111C28.6519 18.5466 26.6667 17.2142 26.6667 15.5636V12.5806C26.6667 10.9299 24.6815 9.59752 22.2222 9.59752H17.7778C15.3185 9.59752 13.3333 10.9299 13.3333 12.5806V15.5636C13.3333 17.2142 15.3185 18.5466 17.7778 18.5466H22.2222C24.6815 18.5466 26.6667 19.879 26.6667 21.5296V24.5127C26.6667 26.1633 28.6519 27.4957 31.1111 27.4957H35.5556C38.0148 27.4957 40 26.1633 40 24.5127Z" fill="#454545"/>
</svg>
