<svg width="11" height="15" viewBox="0 0 11 15" fill="none" xmlns="http://www.w3.org/2000/svg">
<path fill-rule="evenodd" clip-rule="evenodd" d="M3.4375 4C3.4375 2.75736 4.44486 1.75 5.6875 1.75C6.93014 1.75 7.9375 2.75736 7.9375 4C7.9375 5.24264 6.93014 6.25 5.6875 6.25C4.44486 6.25 3.4375 5.24264 3.4375 4ZM5.6875 0.25C3.61643 0.25 1.9375 1.92893 1.9375 4C1.9375 6.07107 3.61643 7.75 5.6875 7.75C7.75857 7.75 9.4375 6.07107 9.4375 4C9.4375 1.92893 7.75857 0.25 5.6875 0.25ZM2.59651 10.5811C3.01847 10.1591 3.59076 9.92204 4.1875 9.92204H7.1875C7.78424 9.92204 8.35653 10.1591 8.77849 10.5811C9.20045 11.003 9.4375 11.5753 9.4375 12.172V13.672C9.4375 14.0863 9.77329 14.422 10.1875 14.422C10.6017 14.422 10.9375 14.0863 10.9375 13.672V12.172C10.9375 11.1775 10.5424 10.2237 9.83915 9.52039C9.13589 8.81713 8.18206 8.42204 7.1875 8.42204H4.1875C3.19294 8.42204 2.23911 8.81713 1.53585 9.52039C0.832588 10.2237 0.4375 11.1775 0.4375 12.172V13.672C0.4375 14.0863 0.773286 14.422 1.1875 14.422C1.60171 14.422 1.9375 14.0863 1.9375 13.672V12.172C1.9375 11.5753 2.17455 11.003 2.59651 10.5811Z" fill="#3E3E59"/>
</svg>
