<svg width="20" height="21" viewBox="0 0 20 21" fill="none" xmlns="http://www.w3.org/2000/svg">
<path fill-rule="evenodd" clip-rule="evenodd" d="M9.83612 20.5C9.83612 17.8706 8.85285 15.5725 6.88977 13.609C4.92669 11.6456 2.62895 10.6622 0 10.6622V10.3413C2.62895 10.3413 4.92669 9.35783 6.88977 7.39096C8.81262 5.45764 9.79541 3.21311 9.83488 0.660629C9.83625 0.572038 9.90795 0.5 9.99655 0.5C10.0852 0.5 10.1568 0.572045 10.1582 0.660637C10.1975 3.2231 11.1803 5.46762 13.1033 7.39096C15.0664 9.35438 17.3642 10.3378 19.9931 10.3378V10.6587C17.3642 10.6587 15.0664 11.6422 13.1033 13.6056C11.1402 15.5725 10.157 17.8706 10.157 20.5" fill="#121212"/>
</svg>
