<svg width="20" height="20" viewBox="0 0 20 20" fill="none" xmlns="http://www.w3.org/2000/svg">
<path d="M10 17.5C14.1421 17.5 17.5 14.1421 17.5 10C17.5 5.85786 14.1421 2.5 10 2.5C5.85786 2.5 2.5 5.85786 2.5 10C2.5 14.1421 5.85786 17.5 10 17.5Z" stroke="#2D2D32" stroke-linecap="round" stroke-linejoin="round"/>
<path d="M10 14.6875C10.5178 14.6875 10.9375 14.2678 10.9375 13.75C10.9375 13.2322 10.5178 12.8125 10 12.8125C9.48223 12.8125 9.0625 13.2322 9.0625 13.75C9.0625 14.2678 9.48223 14.6875 10 14.6875Z" fill="#2D2D32"/>
<path d="M10 17.5C9.00544 17.5 8.05161 17.1049 7.34835 16.4017C6.64509 15.6984 6.25 14.7446 6.25 13.75C6.25 12.7554 6.64509 11.8016 7.34835 11.0983C8.05161 10.3951 9.00544 10 10 10C10.9946 10 11.9484 9.60491 12.6517 8.90165C13.3549 8.19839 13.75 7.24456 13.75 6.25C13.75 5.25544 13.3549 4.30161 12.6517 3.59835C11.9484 2.89509 10.9946 2.5 10 2.5" stroke="#2D2D32" stroke-linecap="round" stroke-linejoin="round"/>
<path d="M10 7.1875C10.5178 7.1875 10.9375 6.76777 10.9375 6.25C10.9375 5.73223 10.5178 5.3125 10 5.3125C9.48223 5.3125 9.0625 5.73223 9.0625 6.25C9.0625 6.76777 9.48223 7.1875 10 7.1875Z" fill="#2D2D32"/>
</svg>
