<svg width="453" height="129" viewBox="0 0 453 129" fill="none" xmlns="http://www.w3.org/2000/svg">
<path d="M140.443 70.7917H129.513L124.103 55.8576H104.635L99.2254 70.755H88.332L110.082 12.4899H118.62L140.443 70.7917ZM114.388 29.8517L108.058 46.5882H120.681L114.388 29.8517Z" fill="white"/>
<path d="M154.904 39.4154C155.088 41.4385 163.478 43.4616 164.987 43.9766C174.372 47.1032 178.162 52.2529 178.199 58.2486L178.126 58.5796C177.537 67.003 169.661 71.8585 159.577 71.8952C152.732 71.8952 147.911 68.4008 145.004 66.9663V54.7174C149.31 58.4325 155.198 61.9637 159.614 61.9637C165.392 61.9637 167.527 60.8602 167.563 58.0647L167.527 57.4026C167.122 55.1588 161.712 54.0185 157.958 52.6943C150.598 50.0826 144.415 47.5446 144.268 39.1212V38.2751C144.746 30.6977 152.806 25.0699 162.742 25.0699C170.986 25.0699 175.881 30.146 177.463 31.6909V42.8731C174.151 38.7165 167.306 35.1118 162.706 35.075H162.374C156.891 35.075 154.94 36.6199 154.867 39.0476L154.904 39.4154Z" fill="white"/>
<path d="M201.234 60.6395L208.558 60.7499V70.7182H199.247C189.568 70.6814 189.568 60.9706 189.568 60.6027V35.3325H184.784V26.063H189.568V18.081H200.314V26.063H208.079V35.3325H200.314V60.382C200.682 60.6395 200.314 60.6027 201.234 60.6395Z" fill="white"/>
<path d="M241.897 25.1066H245.946V35.4796H241.897C233.985 35.4796 229.495 39.6361 229.09 47.3607V70.755H218.344V26.0998H229.09V32.684C229.974 29.5942 233.138 25.1066 241.897 25.1066Z" fill="white"/>
<path d="M272.072 24.0399H272.109C285.652 24.0399 294.153 34.3393 294.153 47.3974C294.153 60.4188 285.652 70.7182 272.072 70.7182C258.529 70.7182 249.991 60.4188 249.991 47.3974C249.991 34.3393 258.529 24.0399 272.072 24.0399ZM272.072 60.382H272.109C280.058 60.382 283.444 56.0048 283.444 47.3974C283.444 38.7901 280.058 34.3761 272.072 34.3761C264.086 34.3761 260.7 38.7901 260.7 47.3974C260.7 56.0048 264.086 60.382 272.072 60.382Z" fill="white"/>
<path d="M301.253 12.4531H321.42C338.349 12.4531 348.801 25.1066 348.801 41.5857C348.801 58.0279 338.349 70.7182 321.42 70.7182H301.253V12.4531ZM311.962 61.3752L321.383 61.412C332.24 61.412 337.981 53.246 337.981 41.5857C337.981 29.9253 332.24 21.7226 321.383 21.7226H311.962V61.3752Z" fill="white"/>
<path d="M378.092 25.1434C396.051 26.0998 399.658 40.4454 399.032 51.039H366.868C366.904 51.7747 366.573 61.2648 378.276 61.8534H378.755C382.84 61.5591 386.814 61.0073 388.323 56.0783H398.775C398.775 57.1451 395.573 71.5274 378.828 71.8217H378.019C364.144 71.6745 355.974 61.228 355.974 48.5009C355.974 35.6267 364.291 25.2906 377.614 25.1434H378.092ZM378.718 35.1118H378.129C367.64 35.406 366.794 42.1006 366.794 43.0938H388.249C388.249 42.7259 388.176 35.6267 378.718 35.1118Z" fill="white"/>
<path d="M422.693 51.8482L432.814 26.0262H444.075L426.3 70.6814H419.086L401.311 26.0262H412.573L422.693 51.8482Z" fill="white"/>
<path d="M37.6492 0.0868806C25.3624 1.92779 16.4792 6.83687 9.26375 15.7346C4.66898 21.3937 1.36756 28.7573 0.380536 35.6777C-0.0278872 38.5413 -0.0278872 45.7686 0.380536 48.6322C0.925101 52.4504 2.35458 56.8481 4.32863 60.8367C12.5652 77.4049 29.9232 86.5412 48.2001 83.9162C57.1174 82.6549 65.0816 78.6322 71.7185 71.9845C77.3003 66.4276 81.0442 59.9504 82.9842 52.4504C83.6649 49.7913 83.8691 48.0186 84.0053 43.5186C84.1754 38.405 84.1074 37.5186 83.3245 33.7345C81.4866 24.9732 77.4705 17.7118 71.1059 11.6437C63.3118 4.17778 53.9861 0.325516 43.0948 0.0527898C40.6783 -0.0153919 38.2278 0.018699 37.6492 0.0868806ZM48.2001 3.29142C60.3848 5.06414 71.7185 13.3482 77.4705 24.7686C81.9631 33.6664 82.78 45.9731 79.4445 55.2118C75.8368 65.3367 68.9276 73.1435 59.4658 77.7799C54.7009 80.1322 50.7187 81.2572 45.7496 81.7003C38.0916 82.3822 31.5228 81.1549 24.7158 77.814C12.2589 71.6776 4.32863 60.1549 2.76301 45.905C1.77598 36.8709 4.63495 26.6096 10.2848 18.9391C12.361 16.1437 17.262 11.3709 19.9508 9.59822C24.5456 6.56414 30.8762 4.00733 35.505 3.3596C38.466 2.91642 45.3412 2.88233 48.2001 3.29142Z" fill="white"/>
<path fill-rule="evenodd" clip-rule="evenodd" d="M41.1998 20.775C40.7954 20.2089 40.7954 8.23961 41.1594 7.87568C41.4828 7.51175 42.8173 7.51175 44.3539 7.83525L45.5265 8.03743L45.2839 20.8559L44.0708 21.3007C42.8173 21.7455 41.685 21.5029 41.1998 20.775ZM44.92 17.5805C44.92 17.257 44.6369 16.6505 44.273 16.327C43.0599 15.0734 41.2807 15.8013 41.2807 17.5401C41.2807 18.551 42.2511 19.7237 43.0599 19.7237C43.7473 19.7237 44.92 18.3893 44.92 17.5805Z" fill="white"/>
<path d="M21.8709 36.4241C22.7201 35.0088 23.8524 34.281 25.7124 33.8766C28.1791 33.3509 31.3736 34.7662 31.8184 36.5858C32.7485 40.2252 29.9179 43.9858 26.319 43.9858C22.154 43.9858 19.7278 39.9017 21.8709 36.4241Z" fill="white"/>
<path fill-rule="evenodd" clip-rule="evenodd" d="M25.3081 28.5793C21.6688 29.5094 17.6251 32.7443 16.3312 35.8175C15.6033 37.5967 15.5224 41.1147 16.2098 42.8535C18.1104 47.6251 23.6502 50.2535 28.8261 48.8382C32.6676 47.7464 36.5091 43.7027 37.3179 39.8612C38.7332 33.0274 32.2228 26.881 25.3081 28.5793ZM32.7081 31.1673C34.6895 32.5421 36.0239 35.3727 36.0239 38.1629C36.0239 43.177 31.2523 47.5846 25.8338 47.6251C23.0437 47.6251 21.9923 47.2611 20.0513 45.5224C14.9563 41.0743 16.6951 33.8361 23.6502 30.6012C26.1977 29.3881 30.5245 29.6711 32.7081 31.1673Z" fill="white"/>
<path d="M55.3931 43.5815C52.4008 41.1553 52.4817 36.6263 55.5144 35.2919C60.4882 33.1488 65.745 37.4351 63.804 42.0853C62.5505 44.9968 58.062 45.8055 55.3931 43.5815Z" fill="white"/>
<path fill-rule="evenodd" clip-rule="evenodd" d="M53.8969 29.9139C51.7538 30.6417 49.2467 33.1488 48.438 35.3324C47.0227 39.3356 47.8718 42.975 50.9855 46.2503C55.0696 50.5366 61.0542 51.3454 65.6236 48.1509C68.9394 45.8864 70.3547 41.2766 69.0203 37.1925C68.252 34.8876 65.1788 31.7335 62.4291 30.4395C60.6094 29.5499 55.7975 29.2669 53.8969 29.9139ZM61.9034 31.8144C66.4728 34.1193 68.9394 38.3247 67.9689 42.0449C66.9985 45.7247 64.2487 48.1913 60.6094 48.6766C55.7166 49.364 49.9746 45.1585 49.1658 40.3466C48.5997 36.9094 50.6215 32.9466 53.8969 31.2887C55.757 30.3587 59.5581 30.6013 61.9034 31.8144Z" fill="white"/>
<path fill-rule="evenodd" clip-rule="evenodd" d="M9.09294 32.9465C12.4896 21.6242 20.3344 13.3751 31.2928 9.57403C33.1124 8.92704 35.0534 8.40136 35.5791 8.40136H36.5495L36.226 15.3161L35.943 22.1903L37.5605 23.7269C40.4719 26.5171 44.7582 26.8405 47.7101 24.5357C49.5298 23.0799 49.7319 22.2712 49.7724 16.6909C49.7724 13.7795 49.8937 10.7467 50.015 9.93796L50.2576 8.4418L53.533 9.6549C58.628 11.4746 62.51 13.9008 66.1897 17.4996C71.77 22.9586 75.0858 29.1859 76.2989 36.5454C77.7142 45.3202 75.8946 53.8928 71.0421 61.2927C68.6564 64.8916 63.6422 69.6631 59.922 71.8872C46.8205 79.6915 29.9583 77.8718 18.9595 67.52C15.4011 64.1637 13.541 61.6566 11.4787 57.4917C8.80988 52.154 7.92027 48.3529 7.96071 41.9639C8.00115 37.2732 8.16289 36.0197 9.09294 32.9465ZM40.2293 37.3137C40.2293 31.6121 38.2883 28.3772 33.4359 25.9914C30.5245 24.5761 25.2272 24.2122 22.1136 25.2231C19.4852 26.0722 16.3716 28.0941 14.4306 30.2372C9.49731 35.7367 9.57818 43.9049 14.6328 48.636C17.706 51.507 19.6874 52.2349 24.2972 52.2753C27.8556 52.2753 28.3409 52.154 30.9288 50.9005C34.2446 49.2021 37.884 45.765 39.2588 42.9748C40.108 41.2765 40.2697 40.3869 40.2293 37.3137ZM70.5569 31.0055C68.252 28.5793 65.9875 27.2045 62.6717 26.1531C55.7975 24.01 47.9932 27.2449 45.8096 33.1487C44.556 36.5454 44.3943 38.4055 45.0817 41.1148C46.2139 45.5628 49.5702 49.4852 54.1396 51.7496C56.404 52.8819 57.3745 53.1245 60.286 53.2054C64.6127 53.4075 67.4433 52.4371 70.3547 49.8087C73.347 47.1398 74.2367 44.9967 74.2367 40.5486C74.2367 36.1815 73.4684 34.1596 70.5569 31.0055ZM35.3364 53.4884C34.6086 53.731 34.4064 53.6097 34.4064 53.1245C34.4064 52.7606 34.1233 52.4775 33.7998 52.4775C33.0315 52.4775 33.0315 53.448 33.7998 54.095C34.1638 54.4185 34.2851 54.7824 34.0829 55.0655C33.4359 55.8742 33.2337 57.3299 33.5977 58.6239C33.9211 59.6348 33.8403 59.9583 33.072 60.5649C32.2228 61.2927 32.2228 61.3332 32.9507 61.6162C33.4359 61.8184 33.7998 61.6971 34.0829 61.2523C34.4064 60.6457 34.5681 60.6053 35.6195 61.1714C36.9943 61.8588 38.5714 61.9397 39.6632 61.3736C40.2697 61.0501 40.5124 61.131 40.8358 61.6566C41.1593 62.2632 41.3211 62.3036 41.7255 61.8588C42.0894 61.5353 42.1298 61.2523 41.8063 60.9288C41.4828 60.6053 41.5637 60.0392 42.0085 58.9069C42.5746 57.4917 42.5342 57.1682 41.9681 55.7124C41.4424 54.378 41.4424 54.0545 41.9276 53.6502C42.2511 53.4075 42.4938 53.0436 42.4938 52.8414C42.4938 52.1944 41.3211 52.4371 40.9167 53.1649C40.5932 53.731 40.4315 53.7715 39.9058 53.3267C39.2588 52.801 37.237 52.8819 35.3364 53.4884ZM39.1375 64.649C33.0315 64.0829 30.9693 63.5572 28.8261 61.8993C28.0578 61.3332 27.1278 60.1201 26.7234 59.2304L25.9551 57.5725L25.6316 58.7452C24.7016 62.3036 25.8742 66.5091 28.3409 68.2479C32.9507 71.5637 45.6883 72.5342 52.5625 70.1484C57.2128 68.5309 59.4772 65.8621 59.4772 62.1015C59.4772 59.1091 58.9111 58.8665 57.0914 61.0097C53.9778 64.6085 49.4489 65.5386 39.1375 64.649Z" fill="white"/>
<path d="M23.3271 99.9229V102.211H18.4448V120.548H17.7681L15.8989 118.518V108.318H10.8394C12.2788 109.79 12.9985 111.138 12.9985 112.362C12.9985 113.49 12.6226 114.43 11.8706 115.182C11.1294 115.923 10.1841 116.294 9.03467 116.294C7.6167 116.294 6.22559 115.467 4.86133 113.812C3.50781 112.147 2.31006 109.854 1.26807 106.932L1.9126 106.545C4.104 111.465 6.2793 113.925 8.43848 113.925C9.08301 113.925 9.60938 113.732 10.0176 113.345C10.4258 112.948 10.6299 112.427 10.6299 111.782C10.6299 111.299 10.4473 110.724 10.082 110.058C9.72754 109.381 8.53516 108.044 6.50488 106.046H15.8989V102.211H0.172363V99.9229H23.3271ZM42.647 99.9229V102.211H37.7485V120.548H37.4102L35.2188 118.356V113.216C33.2529 114.505 31.4966 115.15 29.9497 115.15C28.4028 115.15 27.0601 114.554 25.9214 113.361C24.7827 112.158 24.2134 110.756 24.2134 109.156C26.8882 109.156 28.2256 107.91 28.2256 105.417C28.2256 104.655 27.9409 103.586 27.3716 102.211H22.8599V99.9229H42.647ZM35.2188 102.211H28.9829C29.5737 103.897 29.8691 105.342 29.8691 106.545C29.8691 107.931 29.4878 109.07 28.7251 109.961C27.9624 110.842 26.9204 111.336 25.5991 111.444C26.2866 112.991 27.3877 113.764 28.9023 113.764C30.4492 113.764 32.5547 112.486 35.2188 109.929V102.211ZM75.8564 99.9229V102.211H70.9741V120.548H70.2974L68.4282 118.518V108.318H63.3687C64.8081 109.79 65.5278 111.138 65.5278 112.362C65.5278 113.49 65.1519 114.43 64.3999 115.182C63.6587 115.923 62.7134 116.294 61.564 116.294C60.146 116.294 58.7549 115.467 57.3906 113.812C56.0371 112.147 54.8394 109.854 53.7974 106.932L54.4419 106.545C56.6333 111.465 58.8086 113.925 60.9678 113.925C61.6123 113.925 62.1387 113.732 62.5469 113.345C62.9551 112.948 63.1592 112.427 63.1592 111.782C63.1592 111.299 62.9766 110.724 62.6113 110.058C62.2568 109.381 61.0645 108.044 59.0342 106.046H68.4282V102.211H52.7017V99.9229H75.8564ZM95.418 99.9229V102.211H90.5356V120.5H89.7783L88.0059 118.405V102.211H82.6401C83.0913 107.593 83.3169 110.644 83.3169 111.363C83.3169 113.565 82.855 114.667 81.9312 114.667C81.6196 114.667 81.2759 114.505 80.8999 114.183C80.5347 113.85 79.772 112.921 78.6118 111.396C77.4517 109.87 76.8716 108.887 76.8716 108.447C76.8716 107.963 77.1831 107.722 77.8062 107.722C77.9888 107.722 78.2681 107.743 78.644 107.786C79.02 107.829 79.3262 107.851 79.5625 107.851C80.3789 107.851 80.7871 107.544 80.7871 106.932V102.211H75.3892V99.9229H95.418ZM106.891 99.939V102.211H94.9668V99.939H106.891ZM106.891 107.061V109.333H102.25C101.401 109.333 100.886 109.5 100.703 109.833C100.521 110.155 100.429 110.778 100.429 111.702C100.429 112.443 100.451 113.007 100.494 113.394C100.537 113.78 100.563 114.017 100.574 114.103C100.596 114.188 100.606 114.215 100.606 114.183C100.606 114.559 100.365 114.747 99.8813 114.747C99.645 114.747 99.3066 114.505 98.8662 114.022C98.4365 113.539 97.9155 112.765 97.3032 111.702C96.6909 110.638 96.3848 109.763 96.3848 109.075C96.3955 108.463 96.5996 107.974 96.9971 107.609C97.3945 107.244 97.8511 107.061 98.3667 107.061H106.891ZM125.792 99.9229V102.211H120.893V120.5H120.555L118.363 118.308V109.333H113.304C112.498 109.333 111.993 109.489 111.789 109.8C111.596 110.101 111.499 110.729 111.499 111.686C111.499 112.438 111.515 113.007 111.547 113.394C111.59 113.78 111.623 114.043 111.644 114.183C111.655 114.215 111.66 114.215 111.66 114.183C111.66 114.559 111.424 114.747 110.951 114.747C110.564 114.747 109.882 114.038 108.905 112.62C107.927 111.202 107.438 110.021 107.438 109.075C107.438 108.474 107.637 107.99 108.035 107.625C108.432 107.249 108.894 107.061 109.42 107.061H118.363V102.211H106.004V99.9229H125.792ZM136.313 99.9229V102.211H131.431V120.548H130.835L128.901 118.308V102.211H125.308V99.9229H136.313ZM157.357 99.9229V102.211H152.459V120.467H151.798L149.929 118.437V112.54C148.167 114.108 146.443 114.892 144.757 114.892C143.747 114.892 142.517 114.344 141.067 113.249C139.627 112.153 138.365 110.901 137.28 109.494V109.156C139.214 109.07 140.761 108.549 141.921 107.593C143.081 106.637 143.661 105.584 143.661 104.435C143.661 103.65 143.425 103 142.952 102.485C142.479 101.958 141.937 101.695 141.325 101.695C140.917 101.695 140.514 101.84 140.116 102.13C139.719 102.42 139.52 102.925 139.52 103.645C139.52 104.666 140.111 105.536 141.292 106.255L140.664 106.723C138.44 105.81 137.329 104.445 137.329 102.63C137.329 100.89 138.129 100.02 139.729 100.02C140.868 100.02 142.173 100.68 143.645 102.001C145.117 103.323 145.853 104.671 145.853 106.046C145.853 106.948 145.348 107.883 144.338 108.85C143.328 109.806 141.835 110.568 139.858 111.138C141.223 112.459 142.501 113.12 143.693 113.12C144.875 113.12 146.207 112.55 147.689 111.412C149.183 110.262 149.929 109.005 149.929 107.641V102.211H146.852L144.58 99.9229H157.357ZM159.468 118.437L161.241 116.665L163.094 118.485C162.739 119.151 162.428 120.081 162.159 121.273C161.751 123.067 161.305 124.292 160.822 124.947C160.349 125.602 159.828 126.145 159.259 126.574L158.792 125.994C160.231 124.78 160.951 123.357 160.951 121.724C160.951 120.564 160.457 119.468 159.468 118.437ZM199.284 99.9229V102.211H194.402V120.548H193.725L191.856 118.518V108.318H186.796C188.236 109.79 188.956 111.138 188.956 112.362C188.956 113.49 188.58 114.43 187.828 115.182C187.086 115.923 186.141 116.294 184.992 116.294C183.574 116.294 182.183 115.467 180.818 113.812C179.465 112.147 178.267 109.854 177.225 106.932L177.87 106.545C180.061 111.465 182.236 113.925 184.396 113.925C185.04 113.925 185.566 113.732 185.975 113.345C186.383 112.948 186.587 112.427 186.587 111.782C186.587 111.299 186.404 110.724 186.039 110.058C185.685 109.381 184.492 108.044 182.462 106.046H191.856V102.211H176.129V99.9229H199.284ZM218.604 99.9229V102.211H213.706V120.548H213.367L211.176 118.356V113.216C209.21 114.505 207.454 115.15 205.907 115.15C204.36 115.15 203.017 114.554 201.878 113.361C200.74 112.158 200.17 110.756 200.17 109.156C202.845 109.156 204.183 107.91 204.183 105.417C204.183 104.655 203.898 103.586 203.329 102.211H198.817V99.9229H218.604ZM211.176 102.211H204.94C205.531 103.897 205.826 105.342 205.826 106.545C205.826 107.931 205.445 109.07 204.682 109.961C203.919 110.842 202.877 111.336 201.556 111.444C202.244 112.991 203.345 113.764 204.859 113.764C206.406 113.764 208.512 112.486 211.176 109.929V102.211ZM248.655 99.9229V102.211H243.757V120.548H243.418L241.227 118.405V114.135C239.25 115.435 237.591 116.084 236.248 116.084C234.895 116.084 233.562 115.429 232.252 114.119C230.952 112.797 230.302 111.481 230.302 110.171C230.302 108.86 231.022 107.77 232.461 106.9C233.901 106.019 235.249 105.579 236.506 105.579C237.698 105.579 239.272 106.449 241.227 108.189V102.211H228.659V99.9229H248.655ZM234.943 108.656L238.778 112.749C239.583 112.33 240.19 111.917 240.599 111.508C241.018 111.089 241.227 110.348 241.227 109.285C240.207 108.307 239.154 107.818 238.069 107.818C236.984 107.818 235.942 108.098 234.943 108.656ZM237.988 113.12L234.153 108.995C232.606 109.79 231.833 110.687 231.833 111.686C231.833 112.287 232.118 112.856 232.687 113.394C233.256 113.92 233.912 114.183 234.653 114.183C235.458 114.183 236.57 113.829 237.988 113.12ZM271.085 99.9229V102.211H266.203V120.467H265.526L263.705 118.405V107.722C262.588 107.979 260.864 109.628 258.533 112.668L256.664 110.815C256.964 110.364 257.458 109.741 258.146 108.946C257.083 107.937 256.03 107.432 254.988 107.432C254.29 107.432 253.634 107.716 253.022 108.286C252.42 108.855 252.12 109.526 252.12 110.3C252.12 111.138 252.394 111.986 252.941 112.846C253.5 113.694 254.993 115.306 257.421 117.68L256.873 118.179L252.297 113.603C251.341 112.658 250.691 111.847 250.347 111.17C250.003 110.493 249.832 109.865 249.832 109.285C249.832 108.243 250.17 107.378 250.847 106.69C251.534 106.003 252.377 105.659 253.376 105.659C254.977 105.659 256.733 106.572 258.646 108.398C260.289 106.798 261.976 105.998 263.705 105.998V102.211H248.188V99.9229H271.085ZM288.665 99.9229V102.211H284.04L284.362 107.561H279.48C275.935 107.561 274.163 108.753 274.163 111.138C274.163 112.029 274.528 112.846 275.258 113.587C276 114.317 276.929 114.683 278.046 114.683C278.68 114.683 279.244 114.57 279.738 114.344C279.512 114.022 279.399 113.576 279.399 113.007C279.399 112.556 279.62 112.142 280.06 111.766C280.5 111.379 281.038 111.186 281.671 111.186C282.584 111.186 283.331 111.449 283.911 111.976C284.502 112.502 284.797 113.152 284.797 113.925C284.797 114.656 284.25 115.386 283.154 116.117L286.183 120.081L284.459 120.467L281.51 116.713C281.059 116.831 280.608 116.89 280.157 116.89C278.234 116.89 276.499 116.042 274.952 114.344C273.416 112.647 272.648 110.96 272.648 109.285C272.648 107.953 273.142 106.954 274.13 106.288C275.129 105.622 276.8 105.289 279.142 105.289H282.01V102.211H270.618V99.9229H282.799L280.334 96.7163C279.442 95.5562 278.562 94.7129 277.691 94.1865C276.832 93.6602 275.774 93.397 274.517 93.397H272.326L271.294 90.6577H272.954C274.49 90.6577 275.812 91.0229 276.918 91.7534C278.024 92.4731 279.297 93.8105 280.737 95.7656L283.814 99.9229H288.665ZM308.21 99.9229V102.211H303.312V120.5H302.635L300.782 118.437V113.087C298.934 114.355 297.307 114.989 295.899 114.989C294.61 114.989 293.321 114.35 292.032 113.071C290.754 111.782 290.115 110.563 290.115 109.414C290.115 108.146 290.813 107.125 292.209 106.352C293.606 105.579 295.029 105.192 296.479 105.192C297.908 105.192 299.342 105.912 300.782 107.351V102.211H288.213V99.9229H308.21ZM300.782 109.252V108.447C299.847 107.77 298.923 107.432 298.01 107.432C296.743 107.432 295.405 107.781 293.998 108.479C292.591 109.167 291.887 109.945 291.887 110.815C291.887 111.503 292.124 112.078 292.596 112.54C293.069 112.991 293.622 113.216 294.256 113.216C294.986 113.216 296.232 112.701 297.994 111.669C299.756 110.627 300.685 109.822 300.782 109.252ZM310.321 118.437L312.093 116.665L313.946 118.485C313.592 119.151 313.28 120.081 313.012 121.273C312.604 123.067 312.158 124.292 311.674 124.947C311.202 125.602 310.681 126.145 310.111 126.574L309.644 125.994C311.083 124.78 311.803 123.357 311.803 121.724C311.803 120.564 311.309 119.468 310.321 118.437ZM350.137 99.9229V102.211H345.254V120.548H344.578L342.708 118.518V108.318H337.649C339.088 109.79 339.808 111.138 339.808 112.362C339.808 113.49 339.432 114.43 338.68 115.182C337.939 115.923 336.994 116.294 335.844 116.294C334.426 116.294 333.035 115.467 331.671 113.812C330.317 112.147 329.12 109.854 328.078 106.932L328.722 106.545C330.914 111.465 333.089 113.925 335.248 113.925C335.893 113.925 336.419 113.732 336.827 113.345C337.235 112.948 337.439 112.427 337.439 111.782C337.439 111.299 337.257 110.724 336.892 110.058C336.537 109.381 335.345 108.044 333.314 106.046H342.708V102.211H326.982V99.9229H350.137ZM369.457 99.9229V102.211H364.558V120.548H364.22L362.028 118.356V113.216C360.062 114.505 358.306 115.15 356.759 115.15C355.212 115.15 353.87 114.554 352.731 113.361C351.592 112.158 351.023 110.756 351.023 109.156C353.698 109.156 355.035 107.91 355.035 105.417C355.035 104.655 354.75 103.586 354.181 102.211H349.669V99.9229H369.457ZM362.028 102.211H355.792C356.383 103.897 356.679 105.342 356.679 106.545C356.679 107.931 356.297 109.07 355.535 109.961C354.772 110.842 353.73 111.336 352.409 111.444C353.096 112.991 354.197 113.764 355.712 113.764C357.259 113.764 359.364 112.486 362.028 109.929V102.211ZM401.312 99.9229V102.211H396.43V120.548H395.705L393.9 118.485V110.042C392.375 110.805 391.193 111.186 390.355 111.186C389.195 111.186 387.847 110.891 386.311 110.3C385.645 111.675 384.968 112.69 384.281 113.345C386.386 115.913 388.202 117.991 389.727 119.581L389.26 120.129C386.134 116.82 383.985 114.36 382.814 112.749C381.654 111.127 381.074 109.849 381.074 108.914C381.074 107.818 381.579 107.271 382.589 107.271C383.18 107.271 383.856 107.453 384.619 107.818C385.124 107.077 385.376 106.057 385.376 104.757C385.376 103.962 385.151 103.113 384.7 102.211H379.511V99.9229H401.312ZM393.9 102.211H386.762C387.138 103.231 387.326 104.327 387.326 105.498C387.326 106.357 387.181 107.394 386.891 108.608C388.449 109.145 389.716 109.414 390.694 109.414C391.671 109.414 392.45 109.167 393.03 108.672C393.61 108.167 393.9 107.598 393.9 106.964V102.211ZM393.917 122.111L393.353 119.855C393.696 119.791 394.185 119.758 394.819 119.758C396.269 119.758 397.478 120.172 398.444 120.999C399.4 121.826 399.878 122.906 399.878 124.238C399.878 125.548 399.417 126.574 398.493 127.315C397.569 128.067 396.35 128.443 394.835 128.443C393.234 128.443 391.623 127.885 390.001 126.768C388.379 125.65 386.913 124.05 385.602 121.966H386.617C388.733 125.027 391.532 126.558 395.012 126.558C397.666 126.558 398.992 125.801 398.992 124.286C398.992 123.674 398.627 123.142 397.896 122.691C397.166 122.25 396.28 122.03 395.238 122.03C394.679 122.03 394.239 122.057 393.917 122.111ZM424.048 99.9229V102.211H419.15V120.548H418.393L416.62 118.437V112.153H410.803C410.492 115.107 410.1 116.584 409.627 116.584C409.229 116.584 408.333 115.698 406.936 113.925C405.55 112.153 404.857 110.971 404.857 110.38C404.857 110.08 405.067 109.929 405.486 109.929H408.273C408.563 109.188 408.789 108.173 408.95 106.884C408.51 107.002 407.946 107.061 407.258 107.061C406.152 107.061 405.024 106.588 403.875 105.643C402.736 104.698 402.167 103.704 402.167 102.662C402.167 101.932 402.371 101.314 402.779 100.809C403.187 100.304 403.724 100.052 404.39 100.052C406.152 100.052 407.709 100.847 409.063 102.437C410.417 104.026 411.093 105.987 411.093 108.318C411.093 108.909 411.066 109.446 411.013 109.929H416.62V102.211H411.641L409.998 99.9229H424.048ZM408.982 106.078C408.982 104.682 408.725 103.581 408.209 102.775C407.693 101.969 407.011 101.566 406.163 101.566C405.658 101.566 405.233 101.76 404.89 102.146C404.557 102.533 404.39 102.99 404.39 103.516C404.39 104.3 404.68 104.961 405.26 105.498C405.851 106.024 406.614 106.288 407.548 106.288C408 106.288 408.478 106.218 408.982 106.078ZM441.644 99.9229V102.211H436.584L436.842 107.818H431.622C430.429 107.818 429.527 108.108 428.915 108.688C428.302 109.269 427.996 110.015 427.996 110.928C427.996 112.024 428.404 112.969 429.221 113.764C430.048 114.548 431.063 114.94 432.266 114.94C432.492 114.94 432.723 114.924 432.959 114.892C432.701 114.441 432.572 113.963 432.572 113.458C432.572 112.867 432.776 112.373 433.185 111.976C433.604 111.567 434.119 111.363 434.731 111.363C435.408 111.363 435.994 111.61 436.488 112.104C436.982 112.588 437.229 113.168 437.229 113.845C437.229 114.822 436.794 115.623 435.924 116.246L439.968 121.37L438.615 122.256L434.441 116.971L427.416 120.177L425.789 118.356L430.478 116.294C429.403 115.542 428.501 114.479 427.771 113.104C427.04 111.718 426.675 110.461 426.675 109.333C426.675 106.798 428.028 105.53 430.735 105.53H434.731V102.211H423.597V99.9229H441.644ZM452.198 99.9229V102.211H447.316V120.548H446.72L444.786 118.308V102.211H441.193V99.9229H452.198Z" fill="white"/>
</svg>
