<svg width="193" height="56" viewBox="0 0 193 56" fill="none" xmlns="http://www.w3.org/2000/svg">
<path fill-rule="evenodd" clip-rule="evenodd" d="M16.2488 0.0308135C10.9355 0.826887 7.09412 2.94975 3.97388 6.79744C1.98694 9.24463 0.559287 12.4289 0.132463 15.4216C-0.0441543 16.6599 -0.0441543 19.7852 0.132463 21.0236C0.367952 22.6747 0.986112 24.5764 1.83976 26.3013C5.40154 33.4659 12.9078 37.4168 20.8114 36.2817C24.6675 35.7362 28.1116 33.9966 30.9816 31.1219C33.3953 28.719 35.0143 25.918 35.8533 22.6747C36.1476 21.5248 36.2359 20.7582 36.2948 18.8123C36.3684 16.6009 36.339 16.2177 36.0004 14.5813C35.2057 10.7926 33.4689 7.65248 30.7167 5.02839C27.3462 1.79987 23.3135 0.134008 18.6037 0.0160714C17.5587 -0.0134128 16.499 0.0013293 16.2488 0.0308135ZM20.8114 1.41657C26.0805 2.18316 30.9816 5.76549 33.4689 10.7041C35.4117 14.5518 35.765 19.8737 34.3226 23.8688C32.7625 28.2472 29.7747 31.6232 25.6831 33.6281C23.6225 34.6453 21.9005 35.1318 19.7517 35.3234C16.4401 35.6183 13.5995 35.0876 10.6559 33.6428C5.26908 30.9892 1.83976 26.0064 1.16273 19.8442C0.735904 15.9376 1.97222 11.5002 4.41543 8.1832C5.31323 6.97435 7.43264 4.91045 8.59537 4.14386C10.5823 2.83181 13.3199 1.72616 15.3215 1.44606C16.602 1.25441 19.5751 1.23967 20.8114 1.41657ZM17.7842 8.97712C17.6093 8.73231 17.6093 3.55635 17.7667 3.39897C17.9066 3.2416 18.4836 3.2416 19.1481 3.38149L19.6552 3.46892L19.5503 9.01209L19.0257 9.20444C18.4836 9.39679 17.994 9.29187 17.7842 8.97712ZM19.3929 7.5957C19.3929 7.45581 19.2705 7.19351 19.1131 7.05362C18.5886 6.51154 17.8192 6.8263 17.8192 7.57821C17.8192 8.01537 18.2388 8.52247 18.5886 8.52247C18.8858 8.52247 19.3929 7.94542 19.3929 7.5957ZM11.0869 14.6427C10.2825 14.8176 9.79291 15.1323 9.42569 15.7443C8.49892 17.2482 9.5481 19.0143 11.3492 19.0143C12.9055 19.0143 14.1295 17.3881 13.7273 15.8143C13.535 15.0274 12.1536 14.4154 11.0869 14.6427ZM10.9121 12.352C9.33829 12.7542 7.58965 14.1531 7.03009 15.482C6.71533 16.2514 6.68036 17.7727 6.97763 18.5247C7.79949 20.588 10.1951 21.7247 12.4334 21.1126C14.0946 20.6405 15.7558 18.8919 16.1055 17.2307C16.7175 14.2755 13.9022 11.6176 10.9121 12.352ZM14.1121 13.4711C14.9689 14.0656 15.5459 15.2897 15.5459 16.4962C15.5459 18.6645 13.4825 20.5706 11.1394 20.588C9.93282 20.588 9.47818 20.4307 8.63883 19.6788C6.43555 17.7553 7.18747 14.6252 10.1951 13.2263C11.2968 12.7017 13.1678 12.8241 14.1121 13.4711ZM23.9744 15.2547C22.6629 15.8318 22.6279 17.7903 23.9219 18.8394C25.076 19.8012 27.017 19.4515 27.5591 18.1924C28.3984 16.1815 26.1252 14.328 23.9744 15.2547ZM23.2749 12.9291C22.3481 13.2438 21.264 14.328 20.9142 15.2723C20.3022 17.0034 20.6694 18.5772 22.0159 19.9936C23.782 21.8471 26.37 22.1968 28.3459 20.8154C29.7798 19.8362 30.3918 17.8427 29.8148 16.0766C29.4825 15.0799 28.1536 13.716 26.9645 13.1564C26.1776 12.7717 24.0967 12.6493 23.2749 12.9291ZM26.7372 13.7509C28.7131 14.7477 29.7798 16.5662 29.3601 18.175C28.9405 19.7662 27.7514 20.8329 26.1776 21.0427C24.0618 21.34 21.5787 19.5214 21.229 17.4406C20.9842 15.9542 21.8585 14.2406 23.2749 13.5236C24.0793 13.1214 25.723 13.2264 26.7372 13.7509ZM13.5 4.1334C8.76122 5.77711 5.36887 9.34433 3.90002 14.2405C3.49783 15.5695 3.42789 16.1115 3.4104 18.14C3.39292 20.9028 3.77762 22.5465 4.93171 24.8547C5.82352 26.6558 6.62789 27.74 8.16669 29.1913C12.923 33.6678 20.2148 34.4547 25.8804 31.0799C27.4891 30.1181 29.6574 28.0547 30.6891 26.4984C32.7875 23.2984 33.5743 19.5913 32.9623 15.7968C32.4377 12.6143 31.0038 9.92138 28.5907 7.56072C26.9995 6.00444 25.3208 4.95526 23.1175 4.16837L21.7011 3.64378L21.5962 4.29078C21.5437 4.6405 21.4913 5.95198 21.4913 7.211C21.4738 9.62411 21.3864 9.97384 20.5995 10.6033C19.323 11.6001 17.4694 11.4602 16.2104 10.2536L15.511 9.58914L15.6334 6.61646L15.7732 3.6263H15.3536C15.1263 3.6263 14.2869 3.85362 13.5 4.1334ZM14.4268 11.2329C16.5252 12.2645 17.3645 13.6635 17.3645 16.129C17.382 17.458 17.312 17.8427 16.9448 18.5771C16.3503 19.7837 14.7765 21.27 13.3426 22.0044C12.2235 22.5465 12.0137 22.599 10.4749 22.599C8.48144 22.5815 7.62461 22.2667 6.29565 21.0252C4.10986 18.9793 4.07488 15.4471 6.20822 13.0689C7.04756 12.1421 8.39401 11.2678 9.53062 10.9006C10.8771 10.4635 13.1678 10.6208 14.4268 11.2329ZM27.0694 11.3028C28.5033 11.7574 29.4825 12.352 30.4793 13.4012C31.7383 14.7651 32.0705 15.6394 32.0705 17.5279C32.0705 19.4514 31.6858 20.3782 30.3918 21.5323C29.1328 22.6689 27.9088 23.0886 26.0377 23.0012C24.7787 22.9662 24.359 22.8613 23.3798 22.3717C21.4038 21.3924 19.9525 19.6962 19.4629 17.7727C19.1656 16.6012 19.2355 15.7968 19.7776 14.3279C20.7219 11.7749 24.0967 10.376 27.0694 11.3028ZM14.8465 22.9662C14.8465 23.176 14.9339 23.2285 15.2487 23.1236C16.0705 22.8613 16.9448 22.8263 17.2246 23.0536C17.4519 23.246 17.5219 23.2285 17.6618 22.9837C17.8366 22.6689 18.3437 22.564 18.3437 22.8438C18.3437 22.9312 18.2388 23.0886 18.0989 23.1935C17.8891 23.3684 17.8891 23.5083 18.1164 24.0853C18.3612 24.7148 18.3787 24.8547 18.1339 25.4667C17.9416 25.9564 17.9066 26.2012 18.0465 26.3411C18.1864 26.4809 18.1689 26.6033 18.0115 26.7432C17.8366 26.9356 17.7667 26.9181 17.6268 26.6558C17.4869 26.4285 17.382 26.3935 17.1197 26.5334C16.6476 26.7782 15.9656 26.7432 15.3711 26.446C14.9164 26.2012 14.8465 26.2187 14.7066 26.4809C14.5842 26.6733 14.4268 26.7258 14.217 26.6383C13.9022 26.5159 13.9022 26.4984 14.2694 26.1837C14.6017 25.9214 14.6366 25.7815 14.4967 25.3443C14.3394 24.7848 14.4268 24.1553 14.7066 23.8055C14.794 23.6831 14.7416 23.5258 14.5842 23.3859C14.2519 23.1061 14.2519 22.6864 14.5842 22.6864C14.7241 22.6864 14.8465 22.8088 14.8465 22.9662ZM12.4334 26.7607C13.3601 27.4777 14.2519 27.705 16.8924 27.9498C21.3514 28.3345 23.3099 27.9323 24.6563 26.376C25.4432 25.4493 25.688 25.5542 25.688 26.8482C25.688 28.4744 24.7088 29.6285 22.6978 30.3279C19.7252 31.3596 14.217 30.94 12.2235 29.5061C11.1569 28.7542 10.6497 26.9356 11.0519 25.3968L11.1918 24.8897L11.5241 25.6066C11.6989 25.9913 12.1011 26.5159 12.4334 26.7607ZM130.243 5.37891H138.964C146.284 5.37891 150.804 10.8507 150.804 17.9769C150.804 25.0871 146.284 30.5748 138.964 30.5748H130.243V5.37891ZM134.874 26.5346L138.948 26.5505C143.643 26.5505 146.125 23.0192 146.125 17.9769C146.125 12.9345 143.643 9.38735 138.948 9.38735H134.874V26.5346ZM60.7028 30.6066H55.9762L53.6368 24.1486H45.2181L42.8786 30.5907H38.168L47.5734 5.39481H51.2656L60.7028 30.6066ZM49.4354 12.9027L46.6981 20.1401H52.1568L49.4354 12.9027ZM66.9559 17.0384C67.0222 17.7666 69.5475 18.4949 70.7684 18.8469C71.0142 18.9178 71.2071 18.9735 71.3165 19.0108C75.3747 20.3628 77.0139 22.5897 77.0298 25.1825L76.9979 25.3257C76.7433 28.9683 73.3376 31.0679 68.9771 31.0838C66.5434 31.0838 64.7014 30.0624 63.4245 29.3543L63.4244 29.3543L63.424 29.3541C63.148 29.201 62.8984 29.0626 62.6749 28.9524V23.6555C64.5369 25.262 67.0832 26.7891 68.993 26.7891C71.4915 26.7891 72.4146 26.3119 72.4305 25.103L72.4146 24.8167C72.276 24.0485 70.7808 23.5794 69.3584 23.1331C68.9842 23.0157 68.615 22.8999 68.2768 22.7806C65.0939 21.6513 62.4203 20.5537 62.3567 16.9111V16.5453C62.5635 13.2685 66.0488 10.8348 70.3457 10.8348C73.7955 10.8348 75.8891 12.8906 76.6408 13.6287L76.7115 13.698V18.5336C75.2792 16.7362 72.3191 15.1773 70.3298 15.1614H70.1866C67.8153 15.1614 66.9718 15.8295 66.94 16.8793L66.9559 17.0384ZM90.1579 26.2642L86.9909 26.2164L86.9 26.2129C86.746 26.2071 86.7121 26.2059 86.6893 26.1893C86.6828 26.1846 86.6773 26.1787 86.6702 26.1712C86.6563 26.1565 86.6366 26.1355 86.5931 26.1051V15.2728H89.951V11.2643H86.5931V7.8126H81.9461V11.2643H79.8772V15.2728H81.9461V26.2005C81.9461 26.3596 81.9461 30.5589 86.1316 30.5748H90.1579V26.2642ZM104.575 10.8507H106.326V15.3364H104.575C101.154 15.3364 99.212 17.1338 99.0369 20.4742V30.5907H94.3899V11.2802H99.0369V14.1275C99.4189 12.7913 100.788 10.8507 104.575 10.8507ZM117.64 10.3895H117.624C111.767 10.3895 108.075 14.8433 108.075 20.4901C108.075 26.121 111.767 30.5748 117.624 30.5748C123.496 30.5748 127.172 26.121 127.172 20.4901C127.172 14.8433 123.496 10.3895 117.64 10.3895ZM117.64 26.1051H117.624C114.17 26.1051 112.706 24.2122 112.706 20.4901C112.706 16.768 114.17 14.8592 117.624 14.8592C121.077 14.8592 122.541 16.768 122.541 20.4901C122.541 24.2122 121.077 26.1051 117.64 26.1051ZM172.526 22.0648C172.797 17.4838 171.237 11.2802 163.471 10.8667H163.264C157.503 10.9303 153.906 15.4 153.906 20.9673C153.906 26.4709 157.439 30.9884 163.439 31.052H163.789C171.03 30.9248 172.415 24.7053 172.415 24.244H167.895C167.242 26.3755 165.524 26.6141 163.757 26.7413H163.55C158.703 26.4976 158.63 22.7219 158.618 22.1246V22.1238C158.618 22.098 158.617 22.0781 158.617 22.0648H172.526ZM163.487 15.1773H163.741C167.831 15.4 167.863 18.47 167.863 18.629H158.585C158.585 18.1996 158.951 15.3046 163.487 15.1773ZM182.758 22.4148L187.134 11.2484H192.004L184.317 30.5589H181.198L173.511 11.2484H178.381L182.758 22.4148ZM15.9751 44.9922H14.2358V52.2158H13.9692L13.2329 51.416V47.3979H11.2397C11.8068 47.9777 12.0903 48.5088 12.0903 48.9912C12.0903 49.4355 11.9422 49.8058 11.646 50.1021C11.354 50.394 10.9816 50.54 10.5288 50.54C9.97021 50.54 9.4222 50.2142 8.88477 49.5625C8.35156 48.9066 7.87972 48.0031 7.46924 46.8521L7.72314 46.6997C8.58643 48.6379 9.44336 49.6069 10.2939 49.6069C10.5479 49.6069 10.7552 49.5308 10.916 49.3784C11.0768 49.2218 11.1572 49.0166 11.1572 48.7627C11.1572 48.5723 11.0853 48.3459 10.9414 48.0835C10.8018 47.8169 10.332 47.29 9.53223 46.5029H13.2329V44.9922H7.0376V44.0908H15.9751H16.1592H23.77V44.9922H21.8403V52.2158H21.707L20.8438 51.3525V49.3276C20.0693 49.8354 19.3774 50.0894 18.7681 50.0894C18.1587 50.0894 17.6297 49.8545 17.1812 49.3848C16.7326 48.9108 16.5083 48.3586 16.5083 47.728C17.562 47.728 18.0889 47.2371 18.0889 46.2554C18.0889 45.9549 17.9767 45.5339 17.7524 44.9922H16.1592H15.9751ZM20.8438 44.9922H18.3872C18.62 45.6566 18.7363 46.2257 18.7363 46.6997C18.7363 47.2456 18.5861 47.6942 18.2856 48.0454C17.9852 48.3924 17.5747 48.5871 17.0542 48.6294C17.325 49.2388 17.7588 49.5435 18.3555 49.5435C18.9648 49.5435 19.7943 49.0399 20.8438 48.0327V44.9922ZM36.6685 44.9922H34.9292V52.2158H34.6626L33.9263 51.416V47.3979H31.9331C32.5002 47.9777 32.7837 48.5088 32.7837 48.9912C32.7837 49.4355 32.6356 49.8058 32.3394 50.1021C32.0474 50.394 31.675 50.54 31.2222 50.54C30.6636 50.54 30.1156 50.2142 29.5781 49.5625C29.0449 48.9066 28.5731 48.0031 28.1626 46.8521L28.4165 46.6997C29.2798 48.6379 30.1367 49.6069 30.9873 49.6069C31.2412 49.6069 31.4486 49.5308 31.6094 49.3784C31.7702 49.2218 31.8506 49.0166 31.8506 48.7627C31.8506 48.5723 31.7786 48.3459 31.6348 48.0835C31.4951 47.8169 31.0254 47.29 30.2256 46.5029H33.9263V44.9922H27.731V44.0908H36.6685H36.8525H44.5586V44.0972H48.729V44.0908H56.3335H56.5239H60.6689V44.9922H58.7456V52.2158H58.5107L57.749 51.3335V44.9922H56.5239H56.3335H54.5942V52.1968H54.4609L53.5977 51.3335V47.7979H51.6045C51.2871 47.7979 51.0882 47.8592 51.0078 47.9819C50.9316 48.1004 50.8936 48.348 50.8936 48.7246C50.8936 49.0208 50.8999 49.2451 50.9126 49.3975C50.9295 49.5498 50.9422 49.6535 50.9507 49.7085C50.9549 49.7212 50.957 49.7212 50.957 49.7085C50.957 49.8566 50.8639 49.9307 50.6777 49.9307C50.5254 49.9307 50.2567 49.6514 49.8716 49.0928C49.4865 48.5342 49.2939 48.0687 49.2939 47.6963C49.2939 47.4593 49.3722 47.2689 49.5288 47.125C49.6854 46.9769 49.8674 46.9028 50.0747 46.9028H53.5977V44.9922H49.0781H48.729H44.5586H44.3809H42.6353V52.1968H42.3369L41.6387 51.3716V44.9922H39.5249C39.7026 47.1123 39.7915 48.3141 39.7915 48.5977C39.7915 49.4652 39.6095 49.8989 39.2456 49.8989C39.1229 49.8989 38.9875 49.8354 38.8394 49.7085C38.6955 49.5773 38.395 49.2113 37.938 48.6104C37.481 48.0094 37.2524 47.6222 37.2524 47.4487C37.2524 47.2583 37.3752 47.1631 37.6206 47.1631C37.6925 47.1631 37.8026 47.1716 37.9507 47.1885C38.0988 47.2054 38.2194 47.2139 38.3125 47.2139C38.6341 47.2139 38.7949 47.0933 38.7949 46.8521V44.9922H36.8525H36.6685ZM49.0781 46.9028V47.7979H47.25C46.9157 47.7979 46.7126 47.8634 46.6406 47.9946C46.5687 48.1216 46.5327 48.367 46.5327 48.731C46.5327 49.0229 46.5412 49.2451 46.5581 49.3975C46.575 49.5498 46.5856 49.6429 46.5898 49.6768C46.5983 49.7106 46.6025 49.7212 46.6025 49.7085C46.6025 49.8566 46.5073 49.9307 46.3169 49.9307C46.2238 49.9307 46.0905 49.8354 45.917 49.645C45.7477 49.4546 45.5425 49.1499 45.3013 48.731C45.0601 48.312 44.9395 47.9671 44.9395 47.6963C44.9437 47.4551 45.0241 47.2625 45.1807 47.1187C45.3372 46.9748 45.5171 46.9028 45.7202 46.9028H49.0781ZM68.959 44.0908V44.9922H67.0293V52.1841H66.769L66.0327 51.3843V49.061C65.3387 49.6789 64.6595 49.9878 63.9951 49.9878C63.5973 49.9878 63.1128 49.772 62.5415 49.3403C61.9744 48.9087 61.4772 48.4157 61.0498 47.8613V47.728C61.8115 47.6942 62.4209 47.4889 62.8779 47.1123C63.335 46.7357 63.5635 46.321 63.5635 45.8682C63.5635 45.5592 63.4704 45.3032 63.2842 45.1001C63.098 44.8927 62.8843 44.7891 62.6431 44.7891C62.4823 44.7891 62.3236 44.8462 62.167 44.9604C62.0104 45.0747 61.9321 45.2736 61.9321 45.5571C61.9321 45.9591 62.1649 46.3019 62.6304 46.5854L62.3828 46.7695C61.5068 46.4098 61.0688 45.8724 61.0688 45.1572C61.0688 44.4717 61.3841 44.1289 62.0146 44.1289C62.4632 44.1289 62.9774 44.3892 63.5571 44.9097C64.1369 45.4302 64.4268 45.9613 64.4268 46.5029C64.4268 46.8584 64.2279 47.2266 63.8301 47.6074C63.4323 47.9841 62.8441 48.2845 62.0654 48.5088C62.6029 49.0293 63.1064 49.2896 63.5762 49.2896C64.0417 49.2896 64.5664 49.0653 65.1504 48.6167C65.7386 48.1639 66.0327 47.6688 66.0327 47.1313V44.9922H64.8203L63.9253 44.0908H68.959ZM69.7905 51.3843L70.4888 50.686L71.2188 51.4033C71.0791 51.6657 70.9564 52.0317 70.8506 52.5015C70.6898 53.2082 70.5142 53.6906 70.3237 53.9487C70.1375 54.2069 69.9323 54.4206 69.708 54.5898L69.5239 54.3613C70.091 53.8831 70.3745 53.3224 70.3745 52.6792C70.3745 52.2222 70.1798 51.7905 69.7905 51.3843ZM85.2915 44.9922H83.5522V52.2158H83.2856L82.5493 51.416V47.3979H80.5562C81.1232 47.9777 81.4067 48.5088 81.4067 48.9912C81.4067 49.4355 81.2586 49.8058 80.9624 50.1021C80.6704 50.394 80.298 50.54 79.8452 50.54C79.2866 50.54 78.7386 50.2142 78.2012 49.5625C77.668 48.9066 77.1961 48.0031 76.7856 46.8521L77.0396 46.6997C77.9028 48.6379 78.7598 49.6069 79.6104 49.6069C79.8643 49.6069 80.0716 49.5308 80.2324 49.3784C80.3932 49.2218 80.4736 49.0166 80.4736 48.7627C80.4736 48.5723 80.4017 48.3459 80.2578 48.0835C80.1182 47.8169 79.6484 47.29 78.8486 46.5029H82.5493V44.9922H76.354V44.0908H85.2915H85.4756H93.0864V44.9922H91.1567V52.2158H91.0234L90.1602 51.3525V49.3276C89.3857 49.8354 88.6938 50.0894 88.0845 50.0894C87.4751 50.0894 86.9461 49.8545 86.4976 49.3848C86.049 48.9108 85.8247 48.3586 85.8247 47.728C86.8784 47.728 87.4053 47.2371 87.4053 46.2554C87.4053 45.9549 87.2931 45.5339 87.0688 44.9922H85.4756H85.2915ZM90.1602 44.9922H87.7036C87.9364 45.6566 88.0527 46.2257 88.0527 46.6997C88.0527 47.2456 87.9025 47.6942 87.6021 48.0454C87.3016 48.3924 86.8911 48.5871 86.3706 48.6294C86.6414 49.2388 87.0752 49.5435 87.6719 49.5435C88.2812 49.5435 89.1107 49.0399 90.1602 48.0327V44.9922ZM104.741 44.9922H102.995V52.2158H102.862L101.999 51.3716V49.6895C101.22 50.2015 100.566 50.4575 100.037 50.4575C99.5039 50.4575 98.9792 50.1994 98.4629 49.6831C97.9508 49.1626 97.6948 48.6442 97.6948 48.1279C97.6948 47.6117 97.9784 47.1821 98.5454 46.8394C99.1125 46.4924 99.6436 46.3188 100.139 46.3188C100.608 46.3188 101.228 46.6616 101.999 47.3472V44.9922H97.0474V44.0908H104.741H104.925H113.577H113.761H118.375L117.404 42.8276C117.053 42.3706 116.706 42.0384 116.363 41.8311C116.025 41.6237 115.608 41.52 115.113 41.52H114.25L113.843 40.4409H114.497C115.102 40.4409 115.623 40.5848 116.059 40.8726C116.494 41.1561 116.996 41.6829 117.563 42.4531L118.775 44.0908H120.508H120.686H128.386V44.9922H126.456V52.1968H126.189L125.459 51.3843V49.2769C124.732 49.7762 124.09 50.0259 123.536 50.0259C123.028 50.0259 122.521 49.7741 122.013 49.2705C121.509 48.7627 121.257 48.2824 121.257 47.8296C121.257 47.3302 121.532 46.9282 122.083 46.6235C122.633 46.3188 123.193 46.1665 123.765 46.1665C124.327 46.1665 124.892 46.45 125.459 47.0171V44.9922H120.686H120.508H118.864L118.991 47.0996H117.068C115.671 47.0996 114.973 47.5693 114.973 48.5088C114.973 48.86 115.117 49.1816 115.405 49.4736C115.697 49.7614 116.063 49.9053 116.503 49.9053C116.753 49.9053 116.975 49.8608 117.169 49.772C117.081 49.645 117.036 49.4694 117.036 49.2451C117.036 49.0674 117.123 48.9045 117.296 48.7563C117.47 48.604 117.681 48.5278 117.931 48.5278C118.291 48.5278 118.585 48.6315 118.813 48.8389C119.046 49.0462 119.163 49.3022 119.163 49.6069C119.163 49.8947 118.947 50.1825 118.515 50.4702L119.708 52.0317L119.029 52.1841L117.868 50.7051C117.69 50.7516 117.512 50.7749 117.334 50.7749C116.577 50.7749 115.894 50.4406 115.284 49.772C114.679 49.1034 114.376 48.439 114.376 47.7788C114.376 47.2541 114.571 46.8605 114.96 46.5981C115.354 46.3358 116.012 46.2046 116.935 46.2046H118.064V44.9922H113.761H113.577H111.837V52.1841H111.571L110.854 51.3716V47.1631C110.413 47.2646 109.734 47.9142 108.816 49.1118L108.08 48.3818C108.198 48.2041 108.393 47.9587 108.664 47.6455C108.245 47.2477 107.83 47.0488 107.419 47.0488C107.144 47.0488 106.886 47.161 106.645 47.3853C106.408 47.6095 106.29 47.874 106.29 48.1787C106.29 48.5088 106.397 48.8431 106.613 49.1816C106.833 49.5159 107.422 50.1507 108.378 51.0859L108.162 51.2827L106.359 49.48C105.983 49.1076 105.727 48.7881 105.591 48.5215C105.456 48.2549 105.388 48.0073 105.388 47.7788C105.388 47.3683 105.521 47.0277 105.788 46.7568C106.059 46.486 106.391 46.3506 106.785 46.3506C107.415 46.3506 108.107 46.7103 108.86 47.4297C109.508 46.7992 110.172 46.4839 110.854 46.4839V44.9922H104.925H104.741ZM99.5229 47.5312L101.034 49.1436C101.351 48.9785 101.59 48.8156 101.751 48.6548C101.916 48.4897 101.999 48.1978 101.999 47.7788C101.597 47.3937 101.182 47.2012 100.754 47.2012C100.327 47.2012 99.9165 47.3112 99.5229 47.5312ZM100.723 49.2896L99.2119 47.6646C98.6025 47.9777 98.2979 48.3311 98.2979 48.7246C98.2979 48.9616 98.41 49.1859 98.6343 49.3975C98.8586 49.6048 99.1167 49.7085 99.4087 49.7085C99.7261 49.7085 100.164 49.5688 100.723 49.2896ZM125.459 47.4487C125.091 47.1821 124.727 47.0488 124.368 47.0488C123.868 47.0488 123.341 47.1864 122.787 47.4614C122.233 47.7323 121.956 48.0391 121.956 48.3818C121.956 48.6527 122.049 48.8791 122.235 49.061C122.421 49.2388 122.639 49.3276 122.889 49.3276C123.176 49.3276 123.667 49.1245 124.361 48.7183C125.055 48.3078 125.421 47.9904 125.459 47.7661V47.4487ZM129.217 51.3843L129.916 50.686L130.646 51.4033C130.506 51.6657 130.383 52.0317 130.277 52.5015C130.117 53.2082 129.941 53.6906 129.75 53.9487C129.564 54.2069 129.359 54.4206 129.135 54.5898L128.951 54.3613C129.518 53.8831 129.801 53.3224 129.801 52.6792C129.801 52.2222 129.607 51.7905 129.217 51.3843ZM144.718 44.9922H142.979V52.2158H142.712L141.976 51.416V47.3979H139.983C140.55 47.9777 140.833 48.5088 140.833 48.9912C140.833 49.4355 140.685 49.8058 140.389 50.1021C140.097 50.394 139.725 50.54 139.272 50.54C138.713 50.54 138.165 50.2142 137.628 49.5625C137.095 48.9066 136.623 48.0031 136.212 46.8521L136.466 46.6997C137.33 48.6379 138.187 49.6069 139.037 49.6069C139.291 49.6069 139.498 49.5308 139.659 49.3784C139.82 49.2218 139.9 49.0166 139.9 48.7627C139.9 48.5723 139.828 48.3459 139.685 48.0835C139.545 47.8169 139.075 47.29 138.275 46.5029H141.976V44.9922H135.781V44.0908H144.718H144.902H152.513V44.9922H150.583V52.2158H150.45L149.587 51.3525V49.3276C148.812 49.8354 148.121 50.0894 147.511 50.0894C146.902 50.0894 146.373 49.8545 145.924 49.3848C145.476 48.9108 145.251 48.3586 145.251 47.728C146.305 47.728 146.832 47.2371 146.832 46.2554C146.832 45.9549 146.72 45.5339 146.496 44.9922H144.902H144.718ZM149.587 44.9922H147.13C147.363 45.6566 147.479 46.2257 147.479 46.6997C147.479 47.2456 147.329 47.6942 147.029 48.0454C146.728 48.3924 146.318 48.5871 145.797 48.6294C146.068 49.2388 146.502 49.5435 147.099 49.5435C147.708 49.5435 148.537 49.0399 149.587 48.0327V44.9922ZM165.062 44.0908V44.9922H163.139V51.9817C163.438 52.0596 163.703 52.1969 163.933 52.3936C164.309 52.7194 164.498 53.1447 164.498 53.6694C164.498 54.1857 164.316 54.5898 163.952 54.8818C163.588 55.1781 163.107 55.3262 162.511 55.3262C161.88 55.3262 161.245 55.1061 160.606 54.666C159.967 54.2259 159.39 53.5954 158.874 52.7744H159.273C160.107 53.9805 161.209 54.5835 162.581 54.5835C163.626 54.5835 164.148 54.2852 164.148 53.6885C164.148 53.4473 164.005 53.2378 163.717 53.0601C163.429 52.8866 163.08 52.7998 162.669 52.7998C162.449 52.7998 162.276 52.8104 162.149 52.8315L161.927 51.9429C162.062 51.9175 162.255 51.9048 162.504 51.9048C162.531 51.9048 162.557 51.9051 162.582 51.9058L162.143 51.4033V48.0771C161.542 48.3776 161.076 48.5278 160.746 48.5278C160.289 48.5278 159.758 48.4115 159.153 48.1787C158.89 48.7204 158.624 49.1203 158.353 49.3784C159.182 50.3898 159.898 51.2087 160.499 51.835L160.314 52.0508C159.083 50.7474 158.237 49.7783 157.775 49.1436C157.318 48.5046 157.09 48.001 157.09 47.6328C157.09 47.2012 157.289 46.9854 157.687 46.9854C157.919 46.9854 158.186 47.0573 158.486 47.2012C158.685 46.9092 158.785 46.5072 158.785 45.9951C158.785 45.682 158.696 45.3477 158.518 44.9922H156.474V44.0908H165.062ZM162.143 44.9922H159.331C159.479 45.3942 159.553 45.8258 159.553 46.2871C159.553 46.6257 159.496 47.034 159.381 47.5122C159.995 47.7238 160.494 47.8296 160.879 47.8296C161.264 47.8296 161.571 47.7323 161.8 47.5376C162.028 47.3387 162.143 47.1144 162.143 46.8647V44.9922ZM173.841 44.9922H172.089V52.2158H171.791L171.093 51.3843V48.9087H168.801C168.679 50.0724 168.524 50.6543 168.338 50.6543C168.181 50.6543 167.828 50.3052 167.278 49.6069C166.732 48.9087 166.459 48.4432 166.459 48.2104C166.459 48.092 166.542 48.0327 166.707 48.0327H167.805C167.919 47.7407 168.008 47.3408 168.071 46.833C167.898 46.8796 167.676 46.9028 167.405 46.9028C166.969 46.9028 166.525 46.7166 166.072 46.3442C165.623 45.9718 165.399 45.5804 165.399 45.1699C165.399 44.8822 165.479 44.6388 165.64 44.4399C165.801 44.241 166.013 44.1416 166.275 44.1416C166.969 44.1416 167.583 44.4548 168.116 45.0811C168.649 45.7074 168.916 46.4797 168.916 47.3979C168.916 47.6307 168.905 47.8423 168.884 48.0327H171.093V44.9922H169.131L168.484 44.0908H173.841H174.019H180.773H180.951H185.108V44.9922H183.185V52.2158H182.95L182.188 51.3335V44.9922H180.951H180.773H178.958L179.059 47.2012H177.002C176.533 47.2012 176.177 47.3154 175.936 47.5439C175.695 47.7725 175.574 48.0666 175.574 48.4263C175.574 48.8579 175.735 49.2303 176.057 49.5435C176.382 49.8524 176.782 50.0068 177.256 50.0068C177.345 50.0068 177.436 50.0005 177.529 49.9878C177.428 49.8101 177.377 49.6217 177.377 49.4229C177.377 49.1901 177.457 48.9954 177.618 48.8389C177.783 48.6781 177.986 48.5977 178.228 48.5977C178.494 48.5977 178.725 48.695 178.919 48.8896C179.114 49.0801 179.211 49.3086 179.211 49.5752C179.211 49.9603 179.04 50.2756 178.697 50.521L180.291 52.5396L179.757 52.8887L178.113 50.8066L175.346 52.0698L174.705 51.3525L176.552 50.54C176.129 50.2438 175.773 49.8249 175.485 49.2832C175.198 48.7373 175.054 48.2422 175.054 47.7979C175.054 46.7992 175.587 46.2998 176.653 46.2998H178.228V44.9922H174.019H173.841ZM168.084 46.5156C168.084 45.9655 167.982 45.5317 167.779 45.2144C167.576 44.897 167.307 44.7383 166.973 44.7383C166.774 44.7383 166.607 44.8145 166.472 44.9668C166.34 45.1191 166.275 45.299 166.275 45.5063C166.275 45.8153 166.389 46.0755 166.618 46.2871C166.85 46.4945 167.151 46.5981 167.519 46.5981C167.697 46.5981 167.885 46.5706 168.084 46.5156Z" fill="#F15A2B"/>
</svg>
