<svg width="31" height="31" viewBox="0 0 31 31" fill="none" xmlns="http://www.w3.org/2000/svg">
<rect x="0.554688" y="0.210938" width="30" height="30" rx="15" fill="#F0DEFF"/>
<path d="M21.136 10.2999V20.4219H19.477V13.8839C19.477 13.6225 19.491 13.3402 19.519 13.0369L16.46 18.7839C16.3153 19.0592 16.0936 19.1969 15.795 19.1969H15.529C15.2303 19.1969 15.0086 19.0592 14.864 18.7839L11.77 13.0159C11.784 13.1699 11.7956 13.3215 11.805 13.4709C11.8143 13.6202 11.819 13.7579 11.819 13.8839V20.4219H10.16V10.2999H11.581C11.665 10.2999 11.7373 10.3022 11.798 10.3069C11.8586 10.3115 11.9123 10.3232 11.959 10.3419C12.0103 10.3605 12.0546 10.3909 12.092 10.4329C12.134 10.4749 12.1736 10.5309 12.211 10.6009L15.242 16.2219C15.3213 16.3712 15.3936 16.5252 15.459 16.6839C15.529 16.8425 15.5966 17.0059 15.662 17.1739C15.7273 17.0012 15.795 16.8355 15.865 16.6769C15.935 16.5135 16.0096 16.3572 16.089 16.2079L19.078 10.6009C19.1153 10.5309 19.155 10.4749 19.197 10.4329C19.239 10.3909 19.2833 10.3605 19.33 10.3419C19.3813 10.3232 19.4373 10.3115 19.498 10.3069C19.5586 10.3022 19.631 10.2999 19.715 10.2999H21.136Z" fill="#787887"/>
</svg>
